<?xml version="1.0" encoding="UTF-8" standalone="no"?>
<svg width="84px" height="20px" viewBox="0 0 84 20" version="1.1" xmlns="http://www.w3.org/2000/svg" xmlns:xlink="http://www.w3.org/1999/xlink" xmlns:sketch="http://www.bohemiancoding.com/sketch/ns">
    <!-- Generator: Sketch 3.3.3 (12081) - http://www.bohemiancoding.com/sketch -->
    <title>Atlocs Logo</title>
    <desc>Created with Sketch</desc>
    <defs></defs>
    <g id="Page-1" stroke="none" stroke-width="1" fill="none" fill-rule="evenodd" sketch:type="MSPage">
        <g id="Atlocs-logo-Copy" sketch:type="MSLayerGroup" transform="translate(0.000000, -2.000000)">
            <path d="M42.4,10.5 L47.2,2.2 C46.5,2.1 45.7,2 45,2 C42.6,2 40.4,2.8 38.7,4.3 L42.4,10.6 L42.4,10.5 L42.4,10.5 Z M54.5,9 C53.6,6.1 51.4,3.7 48.5,2.7 L44.9,9 L54.5,9 L54.5,9 Z M54.8,10 L47.3,10 L47.6,10.5 L52.4,18.8 C54,17 55,14.6 55,12 C55,11.3 54.9,10.6 54.8,10 L54.8,10 Z M41.5,12 L37.6,5.2 C36,7 35,9.4 35,12 C35,12.7 35.1,13.4 35.2,14 L42.7,14 L41.5,12 L41.5,12 Z M35.5,15 C36.4,17.9 38.6,20.3 41.5,21.3 L45.2,15 L35.5,15 L35.5,15 Z M46.7,15 L42.8,21.8 C43.5,22 44.2,22 45,22 C47.4,22 49.6,21.2 51.3,19.7 L47.6,13.4 L46.7,15 L46.7,15 Z" id="Shape" fill-opacity="0.512426404" fill="#000000" sketch:type="MSShapeGroup"></path>
            <path d="M11.136,21 L13.848,21 L8.424,4.2 L5.712,4.2 L0.288,21 L3.024,21 L4.416,16.344 L9.744,16.344 L11.136,21 Z M6.624,9 C6.84,8.28 7.032,7.464 7.08,7.104 C7.128,7.416 7.296,8.208 7.536,8.952 L9.048,14.04 L5.112,14.04 L6.624,9 Z M19.68,21 L19.68,6.576 L23.208,6.576 L23.208,4.2 L13.584,4.2 L13.584,6.576 L17.112,6.576 L17.112,21 L19.68,21 Z M34.464,21 L34.464,18.6 L28.152,18.6 L28.152,4.2 L25.608,4.2 L25.608,21 L34.464,21 Z" id="ATL" fill="#FFFFFF" sketch:type="MSShapeGroup"></path>
            <path d="M71.96,18.384 L70.064,16.728 C68.888,17.952 67.352,18.816 65.576,18.816 C62.216,18.816 59.576,16.056 59.576,12.6 C59.576,9.192 62.216,6.408 65.576,6.408 C67.328,6.408 68.84,7.248 69.992,8.424 L71.864,6.72 C70.256,4.992 68.12,3.984 65.6,3.984 C60.824,3.984 57.008,7.872 57.008,12.6 C57.008,17.376 60.8,21.24 65.6,21.24 C68.24,21.24 70.376,20.136 71.96,18.384 L71.96,18.384 Z M78.824,21.24 C81.68,21.24 83.864,19.152 83.864,16.344 C83.864,11.76 77.36,10.248 77.36,7.872 C77.36,6.96 78.008,6.264 78.896,6.264 C79.616,6.264 80.168,6.768 80.576,7.392 L82.424,5.88 C81.656,4.656 80.36,3.96 78.824,3.96 C76.712,3.96 74.816,5.544 74.816,7.848 C74.816,12.048 81.296,13.368 81.296,16.368 C81.296,17.832 80.408,18.912 78.848,18.912 C77.552,18.912 76.424,18.072 75.872,16.584 L73.688,17.832 C74.552,20.136 76.664,21.24 78.824,21.24 L78.824,21.24 Z" id="CS" fill="#FFFFFF" sketch:type="MSShapeGroup"></path>
        </g>
    </g>
</svg>