<?xml version="1.0" standalone="no"?>
<!DOCTYPE svg PUBLIC "-//W3C//DTD SVG 20010904//EN"
 "http://www.w3.org/TR/2001/REC-SVG-20010904/DTD/svg10.dtd">
<svg version="1.0" xmlns="http://www.w3.org/2000/svg"
 width="700.000000pt" height="700.000000pt" viewBox="0 0 700.000000 700.000000"
 preserveAspectRatio="xMidYMid meet">
<metadata>
Created by potrace 1.11, written by Peter Selinger 2001-2013
</metadata>
<g transform="translate(0.000000,700.000000) scale(0.100000,-0.100000)"
fill="#000000" stroke="none">
<path d="M3279 6996 c-2 -2 -44 -6 -94 -10 -49 -3 -101 -8 -115 -10 -14 -2
-46 -7 -71 -10 -61 -9 -84 -12 -199 -32 -143 -25 -422 -107 -593 -175 -315
-126 -632 -318 -889 -540 l-27 -24 121 -205 c66 -113 131 -223 143 -245 13
-22 74 -125 135 -230 62 -104 121 -204 131 -222 20 -36 240 -411 288 -491 17
-29 31 -55 31 -58 0 -3 11 -20 25 -38 14 -18 25 -35 25 -39 0 -3 28 -52 61
-109 34 -56 71 -118 81 -137 11 -19 69 -119 130 -222 l110 -189 84 147 c46 80
84 148 84 150 0 3 14 25 30 50 17 24 30 46 30 48 0 3 13 26 29 52 15 27 105
181 198 343 94 162 196 340 228 395 94 161 222 384 264 457 10 18 42 74 71
123 29 50 62 106 72 125 11 19 63 109 116 200 52 91 116 201 141 245 25 44 50
88 56 97 5 9 23 41 39 70 15 29 33 60 40 68 6 8 16 24 22 35 6 11 48 85 93
163 45 79 81 146 78 148 -5 6 -101 20 -182 28 -33 3 -69 8 -80 10 -11 2 -54 7
-95 11 -41 4 -88 9 -105 11 -40 5 -502 14 -506 10z"/>
<path d="M4629 6577 c-57 -99 -116 -201 -130 -226 -14 -26 -78 -137 -142 -249
-169 -293 -318 -551 -542 -942 -109 -190 -229 -398 -266 -463 -38 -65 -69
-122 -69 -127 0 -6 623 -10 1679 -10 l1679 0 -28 83 c-129 384 -350 779 -614
1097 -75 91 -305 325 -396 404 -164 143 -406 306 -630 427 -54 29 -245 115
-309 139 -42 15 -88 33 -102 38 -25 10 -28 7 -130 -171z"/>
<path d="M864 5813 c-59 -69 -148 -182 -179 -226 -98 -143 -135 -198 -135
-202 0 -2 -13 -23 -29 -47 -105 -157 -266 -506 -343 -743 -52 -160 -110 -396
-123 -495 -3 -19 -7 -46 -10 -60 -3 -14 -7 -45 -10 -70 -3 -25 -8 -56 -10 -70
-25 -140 -26 -664 -1 -797 2 -10 7 -43 10 -74 4 -31 8 -65 10 -75 2 -11 7 -46
12 -79 4 -33 8 -63 10 -67 1 -5 2 -12 3 -16 0 -4 592 -8 1315 -8 l1314 0 -13
26 c-8 15 -87 148 -176 296 -178 296 -359 604 -359 610 0 2 -18 33 -40 69 -22
36 -40 67 -40 70 0 3 -17 33 -38 67 -21 35 -52 88 -69 118 -17 30 -142 249
-278 485 -136 237 -257 448 -270 470 -12 22 -93 164 -180 315 -88 151 -195
339 -240 418 l-82 142 -49 -57z"/>
<path d="M4305 4190 c-1 -3 35 -67 81 -144 46 -76 84 -140 84 -141 0 -2 39
-70 86 -152 48 -81 121 -206 162 -278 41 -71 106 -184 145 -250 38 -66 79
-136 90 -155 10 -19 31 -55 46 -80 14 -25 33 -57 41 -72 8 -15 247 -428 530
-917 l515 -890 43 47 c63 70 232 295 294 392 190 296 332 605 432 940 28 92
81 320 91 385 3 23 8 52 11 65 2 14 7 48 10 75 3 28 7 61 10 75 18 101 25 533
11 680 -13 124 -26 236 -32 260 -1 3 -5 32 -10 65 -5 33 -9 63 -11 68 -1 4 -2
13 -3 20 -1 10 -256 13 -1312 12 -721 0 -1312 -2 -1314 -5z"/>
<path d="M4373 2963 c-11 -21 -35 -65 -53 -98 -19 -33 -53 -93 -77 -133 -24
-41 -43 -76 -43 -78 0 -3 -35 -67 -79 -142 -43 -75 -88 -154 -100 -175 -29
-51 -61 -107 -316 -552 -120 -209 -225 -393 -235 -410 -24 -42 -138 -243 -162
-285 -11 -19 -146 -254 -299 -521 -154 -268 -279 -492 -279 -498 0 -6 3 -10 8
-9 4 1 41 -6 82 -15 163 -36 305 -45 665 -42 171 2 324 6 340 9 17 3 55 7 85
11 30 3 80 10 110 15 30 5 71 11 90 14 57 9 140 25 184 37 23 6 49 13 58 14
188 37 605 202 803 318 170 100 368 238 464 322 14 13 36 32 48 42 l22 18
-100 170 c-56 94 -113 191 -127 216 -106 181 -144 246 -152 259 -15 24 -160
270 -188 319 -14 25 -38 68 -55 95 -35 60 -262 448 -287 491 -10 17 -93 158
-185 315 -93 157 -173 295 -179 307 -15 31 -19 29 -43 -14z"/>
<path d="M191 2442 c-9 -3 40 -152 97 -293 98 -245 264 -536 431 -759 62 -83
66 -88 172 -210 350 -402 818 -725 1320 -913 l67 -25 183 311 c253 431 509
866 529 902 10 17 55 93 101 170 45 77 97 165 114 195 18 30 105 178 194 329
89 151 163 278 164 283 2 8 -3349 18 -3372 10z"/>
</g>
</svg>
