<svg xmlns="http://www.w3.org/2000/svg" width="347" height="347" viewBox="0 0 347 347">
  <path fill="#5B46CD" d="M127.988235,147.267442 L211,3.46511628 C198.894118,1.73255814 185.058824,0 172.952941,0 C131.447059,0 93.4,13.8604651 64,39.8488372 L127.988235,149 L127.988235,147.267442 L127.988235,147.267442 Z M339,121 C323.34375,70.8253968 285.072917,29.3015873 234.625,12 L172,121 L339,121 L339,121 Z M343.519481,139 L213,139 L218.220779,147.693182 L301.753247,292 C329.597403,260.704545 347,218.977273 347,173.772727 C347,161.602273 345.25974,149.431818 343.519481,139 L343.519481,139 Z M113.116883,174.227273 L45.2467532,56 C17.4025974,87.2954545 0,129.022727 0,174.227273 C0,186.397727 1.74025974,198.568182 3.48051948,209 L134,209 L113.116883,174.227273 L113.116883,174.227273 Z M9,226 C24.5876289,276.174603 62.6907216,317.698413 112.917526,335 L177,226 L9,226 L9,226 Z M202.447059,225.72093 L135,343.534884 C147.105882,347 159.211765,347 173.047059,347 C214.552941,347 252.6,333.139535 282,307.151163 L218.011765,198 L202.447059,225.72093 L202.447059,225.72093 Z"/>
</svg>
