<svg xmlns="http://www.w3.org/2000/svg" width="150" height="150" viewBox="0 0 150 150">
  <g fill="none" transform="translate(2)">
    <path fill="#CAC0FF" d="M35.9765625 33.1640625L64.8046875 33.1640625 70.78125 33.1640625 75.1171875 33.1640625C75.5859375 33.1640625 76.0546875 32.8125 76.0546875 32.2265625 76.0546875 31.7578125 75.703125 31.2890625 75.1171875 31.2890625L70.78125 31.2890625 64.8046875 31.2890625 35.9765625 31.2890625C35.5078125 31.2890625 35.0390625 31.640625 35.0390625 32.2265625 35.0390625 32.8125 35.5078125 33.1640625 35.9765625 33.1640625zM35.9765625 40.3125L86.953125 40.3125C87.421875 40.3125 87.890625 39.9609375 87.890625 39.375 87.890625 38.90625 87.5390625 38.4375 86.953125 38.4375L35.9765625 38.4375C35.5078125 38.4375 35.0390625 38.7890625 35.0390625 39.375 35.0390625 39.84375 35.5078125 40.3125 35.9765625 40.3125zM35.9765625 47.34375L64.8046875 47.34375 75.1171875 47.34375 91.640625 47.34375C92.109375 47.34375 92.578125 46.9921875 92.578125 46.40625 92.578125 45.8203125 92.2265625 45.46875 91.640625 45.46875L75.1171875 45.46875 64.8046875 45.46875 35.9765625 45.46875C35.5078125 45.46875 35.0390625 45.8203125 35.0390625 46.40625 35.0390625 46.9921875 35.5078125 47.34375 35.9765625 47.34375zM35.9765625 54.4921875L48.984375 54.4921875C49.453125 54.4921875 49.921875 54.140625 49.921875 53.5546875 49.921875 53.0859375 49.5703125 52.6171875 48.984375 52.6171875L35.9765625 52.6171875C35.5078125 52.6171875 35.0390625 52.96875 35.0390625 53.5546875 35.0390625 54.0234375 35.5078125 54.4921875 35.9765625 54.4921875zM76.0546875 53.5546875C76.0546875 53.0859375 75.703125 52.6171875 75.1171875 52.6171875L58.125 52.6171875C57.65625 52.6171875 57.1875 52.96875 57.1875 53.5546875 57.1875 54.0234375 57.5390625 54.4921875 58.125 54.4921875L75.1171875 54.4921875C75.5859375 54.4921875 76.0546875 54.0234375 76.0546875 53.5546875zM35.9765625 75.8203125L99.9609375 75.8203125C100.429688 75.8203125 100.898438 75.46875 100.898438 74.8828125 100.898438 74.296875 100.546875 73.9453125 99.9609375 73.9453125L35.9765625 73.9453125C35.5078125 73.9453125 35.0390625 74.296875 35.0390625 74.8828125 35.0390625 75.46875 35.5078125 75.8203125 35.9765625 75.8203125zM75.1171875 82.96875L108.046875 82.96875C108.515625 82.96875 108.984375 82.6171875 108.984375 82.03125 108.984375 81.5625 108.632812 81.09375 108.046875 81.09375L75.1171875 81.09375 64.8046875 81.09375 35.9765625 81.09375C35.5078125 81.09375 35.0390625 81.4453125 35.0390625 82.03125 35.0390625 82.5 35.390625 82.96875 35.9765625 82.96875L64.8046875 82.96875 75.1171875 82.96875zM48.984375 88.2421875L35.9765625 88.2421875C35.5078125 88.2421875 35.0390625 88.59375 35.0390625 89.1796875 35.0390625 89.765625 35.390625 90.1171875 35.9765625 90.1171875L48.984375 90.1171875C49.453125 90.1171875 49.921875 89.765625 49.921875 89.1796875 49.921875 88.59375 49.453125 88.2421875 48.984375 88.2421875zM75.1171875 88.2421875L58.125 88.2421875C57.65625 88.2421875 57.1875 88.59375 57.1875 89.1796875 57.1875 89.765625 57.5390625 90.1171875 58.125 90.1171875L75.1171875 90.1171875C75.5859375 90.1171875 76.0546875 89.765625 76.0546875 89.1796875 76.0546875 88.59375 75.5859375 88.2421875 75.1171875 88.2421875zM35.9765625 61.5234375L56.015625 61.5234375C56.484375 61.5234375 56.953125 61.171875 56.953125 60.5859375 56.953125 60.1171875 56.6015625 59.6484375 56.015625 59.6484375L35.9765625 59.6484375C35.5078125 59.6484375 35.0390625 60 35.0390625 60.5859375 35.0390625 61.171875 35.5078125 61.5234375 35.9765625 61.5234375zM65.859375 61.5234375L85.8984375 61.5234375C86.3671875 61.5234375 86.8359375 61.171875 86.8359375 60.5859375 86.8359375 60.1171875 86.484375 59.6484375 85.8984375 59.6484375L65.859375 59.6484375C65.390625 59.6484375 64.921875 60 64.921875 60.5859375 64.921875 61.171875 65.390625 61.5234375 65.859375 61.5234375z"/>
    <path fill="#FFEABA" d="M13.2421875 32.34375C13.2421875 31.875 12.890625 31.40625 12.3046875 31.40625 11.8359375 31.40625 11.3671875 31.7578125 11.3671875 32.34375L11.3671875 46.875C11.3671875 47.34375 11.71875 47.8125 12.3046875 47.8125 12.7734375 47.8125 13.2421875 47.4609375 13.2421875 46.875L13.2421875 32.34375zM12.3046875 50.7421875C11.8359375 50.7421875 11.3671875 51.09375 11.3671875 51.6796875L11.3671875 56.3671875C11.3671875 56.8359375 11.71875 57.3046875 12.3046875 57.3046875 12.7734375 57.3046875 13.2421875 56.953125 13.2421875 56.3671875L13.2421875 51.6796875C13.2421875 51.09375 12.7734375 50.7421875 12.3046875 50.7421875zM135.585938 106.640625C135.117188 106.640625 134.648438 106.992187 134.648438 107.578125L134.648438 122.109375C134.648438 122.578125 135 123.046875 135.585938 123.046875 136.054688 123.046875 136.523438 122.695312 136.523438 122.109375L136.523438 107.578125C136.40625 107.109375 136.054688 106.640625 135.585938 106.640625zM135.585938 125.976562C135.117188 125.976562 134.648438 126.328125 134.648438 126.914062L134.648438 131.601562C134.648438 132.070312 135 132.539062 135.585938 132.539062 136.054688 132.539062 136.523438 132.1875 136.523438 131.601562L136.523438 126.914062C136.40625 126.328125 136.054688 125.976562 135.585938 125.976562zM2.9296875 106.289062C2.578125 105.9375 1.9921875 105.9375 1.640625 106.289062 1.2890625 106.640625 1.2890625 107.226562 1.640625 107.578125L3.515625 109.335938C3.6328125 109.453125 3.8671875 109.570312 4.1015625 109.570312 4.3359375 109.570312 4.5703125 109.453125 4.6875 109.335938 5.0390625 108.984375 5.0390625 108.398438 4.6875 108.046875L2.9296875 106.289062zM7.734375 113.671875L9.609375 115.546875C9.7265625 115.664062 9.9609375 115.78125 10.1953125 115.78125 10.4296875 115.78125 10.6640625 115.664062 10.78125 115.546875 11.1328125 115.195312 11.1328125 114.609375 10.78125 114.257812L8.90625 112.382812C8.5546875 112.03125 7.96875 112.03125 7.6171875 112.382812 7.3828125 112.734375 7.3828125 113.320312 7.734375 113.671875zM3.515625 112.382812L1.640625 114.257812C1.2890625 114.609375 1.2890625 115.195312 1.640625 115.546875 1.7578125 115.664062 1.9921875 115.78125 2.2265625 115.78125 2.4609375 115.78125 2.6953125 115.664062 2.8125 115.546875L4.8046875 113.671875C5.15625 113.320312 5.15625 112.734375 4.8046875 112.382812 4.453125 112.03125 3.8671875 112.03125 3.515625 112.382812zM8.4375 109.6875C8.671875 109.6875 8.90625 109.570312 9.0234375 109.453125L10.8984375 107.578125C11.25 107.226562 11.25 106.640625 10.8984375 106.289062 10.546875 105.9375 9.9609375 105.9375 9.609375 106.289062L7.734375 108.164062C7.3828125 108.515625 7.3828125 109.101562 7.734375 109.453125 7.96875 109.570312 8.203125 109.6875 8.4375 109.6875zM138.75 47.109375L136.875 45.234375C136.523438 44.8828125 135.9375 44.8828125 135.585938 45.234375 135.234375 45.5859375 135.234375 46.171875 135.585938 46.5234375L137.460938 48.3984375C137.578125 48.515625 137.8125 48.6328125 138.046875 48.6328125 138.28125 48.6328125 138.515625 48.515625 138.632813 48.3984375 138.984375 48.046875 138.984375 47.4609375 138.75 47.109375zM142.96875 51.328125C142.617188 50.9765625 142.03125 50.9765625 141.679688 51.328125 141.328125 51.6796875 141.328125 52.265625 141.679688 52.6171875L143.554688 54.4921875C143.671875 54.609375 143.90625 54.7265625 144.140625 54.7265625 144.375 54.7265625 144.609375 54.609375 144.726562 54.4921875 145.078125 54.140625 145.078125 53.5546875 144.726562 53.203125L142.96875 51.328125zM137.460938 51.328125L135.585938 53.203125C135.234375 53.5546875 135.234375 54.140625 135.585938 54.4921875 135.703125 54.609375 135.9375 54.7265625 136.171875 54.7265625 136.40625 54.7265625 136.640625 54.609375 136.757813 54.4921875L138.632812 52.6171875C138.984375 52.265625 138.984375 51.6796875 138.632812 51.328125 138.398438 50.9765625 137.8125 50.9765625 137.460938 51.328125zM143.554688 45.234375L141.679688 47.109375C141.328125 47.4609375 141.328125 48.046875 141.679688 48.3984375 141.796875 48.515625 142.03125 48.6328125 142.265625 48.6328125 142.5 48.6328125 142.734375 48.515625 142.851563 48.3984375L144.726562 46.5234375C145.078125 46.171875 145.078125 45.5859375 144.726562 45.234375 144.492188 44.8828125 143.90625 44.8828125 143.554688 45.234375zM50.7421875 3.984375C50.859375 4.1015625 51.09375 4.21875 51.328125 4.21875 51.5625 4.21875 51.796875 4.1015625 51.9140625 3.984375 52.265625 3.6328125 52.265625 3.046875 51.9140625 2.6953125L50.0390625.8203125C49.6875.46875 49.1015625.46875 48.75.8203125 48.3984375 1.171875 48.3984375 1.7578125 48.75 2.109375L50.7421875 3.984375zM56.8359375 10.078125C56.953125 10.1953125 57.1875 10.3125 57.421875 10.3125 57.65625 10.3125 57.890625 10.1953125 58.0078125 10.078125 58.359375 9.7265625 58.359375 9.140625 58.0078125 8.7890625L56.25 6.9140625C55.8984375 6.5625 55.3125 6.5625 54.9609375 6.9140625 54.609375 7.265625 54.609375 7.8515625 54.9609375 8.203125L56.8359375 10.078125zM49.453125 10.3125C49.6875 10.3125 49.921875 10.1953125 50.0390625 10.078125L52.03125 8.203125C52.3828125 7.8515625 52.3828125 7.265625 52.03125 6.9140625 51.6796875 6.5625 51.09375 6.5625 50.7421875 6.9140625L48.8671875 8.7890625C48.515625 9.140625 48.515625 9.7265625 48.8671875 10.078125 48.984375 10.3125 49.21875 10.3125 49.453125 10.3125zM55.6640625 4.21875C55.8984375 4.21875 56.1328125 4.1015625 56.25 3.984375L58.125 2.109375C58.4765625 1.7578125 58.4765625 1.171875 58.125.8203125 57.7734375.46875 57.1875.46875 56.8359375.8203125L54.9609375 2.6953125C54.609375 3.046875 54.609375 3.6328125 54.9609375 3.984375 55.1953125 4.1015625 55.4296875 4.21875 55.6640625 4.21875zM135.585938 74.296875C133.242188 74.296875 131.25 76.171875 131.25 78.6328125 131.25 81.09375 133.125 82.96875 135.585938 82.96875 137.929688 82.96875 139.921875 81.09375 139.921875 78.6328125 139.921875 76.171875 137.929688 74.296875 135.585938 74.296875zM135.585938 81.2109375C134.179688 81.2109375 133.007813 80.0390625 133.007813 78.6328125 133.007813 77.2265625 134.179688 76.0546875 135.585938 76.0546875 136.992188 76.0546875 138.164062 77.2265625 138.164062 78.6328125 138.046875 80.0390625 136.992188 81.2109375 135.585938 81.2109375zM10.3125 130.898437C7.96875 130.898437 5.9765625 132.773437 5.9765625 135.234375 5.9765625 137.578125 7.8515625 139.570312 10.3125 139.570312 12.65625 139.570312 14.6484375 137.695312 14.6484375 135.234375 14.6484375 132.890625 12.65625 130.898437 10.3125 130.898437zM10.3125 137.695312C8.90625 137.695312 7.734375 136.523437 7.734375 135.117187 7.734375 133.710937 8.90625 132.539062 10.3125 132.539062 11.71875 132.539062 12.890625 133.710937 12.890625 135.117187 12.890625 136.640625 11.71875 137.695312 10.3125 137.695312zM12.3046875 17.2265625C14.6484375 17.2265625 16.640625 15.3515625 16.640625 12.890625 16.640625 10.4296875 14.765625 8.5546875 12.3046875 8.5546875 9.9609375 8.5546875 7.96875 10.4296875 7.96875 12.890625 7.96875 15.3515625 9.9609375 17.2265625 12.3046875 17.2265625zM12.3046875 10.3125C13.7109375 10.3125 14.8828125 11.484375 14.8828125 12.890625 14.8828125 14.296875 13.7109375 15.46875 12.3046875 15.46875 10.8984375 15.46875 9.7265625 14.296875 9.7265625 12.890625 9.7265625 11.484375 10.8984375 10.3125 12.3046875 10.3125zM97.03125 12.7734375C99.375 12.7734375 101.367188 10.8984375 101.367188 8.4375 101.367188 5.9765625 99.4921875 4.1015625 97.03125 4.1015625 94.5703125 4.1015625 92.6953125 5.9765625 92.6953125 8.4375 92.6953125 10.8984375 94.6875 12.7734375 97.03125 12.7734375zM97.03125 5.9765625C98.4375 5.9765625 99.609375 7.1484375 99.609375 8.5546875 99.609375 9.9609375 98.4375 11.1328125 97.03125 11.1328125 95.625 11.1328125 94.453125 9.9609375 94.453125 8.5546875 94.453125 7.1484375 95.625 5.9765625 97.03125 5.9765625zM114.726563 6.9140625L132.539062 6.9140625C133.007812 6.9140625 133.476562 6.5625 133.476562 5.9765625 133.476562 5.390625 133.125 5.0390625 132.539062 5.0390625L114.726563 5.0390625C114.257813 5.0390625 113.789063 5.390625 113.789063 5.9765625 113.789063 6.5625 114.257813 6.9140625 114.726563 6.9140625zM138.398438 6.9140625L144.140625 6.9140625C144.609375 6.9140625 145.078125 6.5625 145.078125 5.9765625 145.078125 5.390625 144.726562 5.0390625 144.140625 5.0390625L138.398438 5.0390625C137.929688 5.0390625 137.460938 5.390625 137.460938 5.9765625 137.460938 6.5625 137.929688 6.9140625 138.398438 6.9140625zM144.140625 13.0078125C144.609375 13.0078125 145.078125 12.65625 145.078125 12.0703125 145.078125 11.484375 144.726562 11.1328125 144.140625 11.1328125L131.71875 11.1328125C131.25 11.1328125 130.78125 11.484375 130.78125 12.0703125 130.78125 12.65625 131.132813 13.0078125 131.71875 13.0078125L144.140625 13.0078125zM126.445313 11.25L122.460938 11.25C121.992188 11.25 121.523438 11.6015625 121.523438 12.1875 121.523438 12.7734375 121.875 13.125 122.460938 13.125L126.445313 13.125C126.914063 13.125 127.382813 12.7734375 127.382813 12.1875 127.382813 11.6015625 126.914063 11.25 126.445313 11.25z"/>
    <path fill="#5B46CD" d="M126.914063,38.0859375 C126.914063,38.0859375 126.914063,38.0859375 126.914063,38.0859375 C126.796875,37.96875 126.796875,37.8515625 126.679688,37.734375 C126.679688,37.734375 126.679688,37.734375 126.679688,37.734375 L108.632812,19.6875 C108.515625,19.5703125 108.515625,19.5703125 108.398438,19.5703125 C108.398438,19.5703125 108.398438,19.5703125 108.28125,19.5703125 C108.164063,19.5703125 108.164063,19.5703125 108.046875,19.5703125 C108.046875,19.5703125 108.046875,19.5703125 108.046875,19.5703125 L29.0625,19.5703125 L28.125,19.5703125 L23.203125,19.5703125 C21.328125,19.5703125 19.6875,21.09375 19.6875,23.0859375 L19.6875,85.6640625 L18.28125,84.2578125 C18.28125,84.2578125 18.1640625,84.140625 18.1640625,84.140625 L8.203125,73.828125 C7.265625,72.890625 6.09375,72.421875 4.921875,72.421875 C3.6328125,72.421875 2.4609375,72.890625 1.640625,73.828125 C-0.234375,75.703125 -0.234375,78.6328125 1.640625,80.390625 L19.8046875,98.5546875 L19.8046875,145.78125 C19.8046875,147.65625 21.328125,149.296875 23.3203125,149.296875 L27.65625,149.296875 L29.0625,149.296875 L123.164063,149.296875 C125.273438,149.296875 127.03125,147.539062 127.03125,145.429687 L127.03125,38.4375 C127.03125,38.4375 127.03125,38.4375 127.03125,38.4375 C127.03125,38.203125 126.914063,38.203125 126.914063,38.0859375 Z M108.867188,22.3828125 L123.984375,37.5 L108.867188,37.5 L108.867188,22.3828125 Z M21.5625,22.8515625 C21.5625,21.9140625 22.265625,21.2109375 23.203125,21.2109375 L24.609375,21.2109375 C24.0234375,21.9140625 23.671875,22.8515625 23.671875,23.90625 L23.671875,89.4140625 L22.03125,87.7734375 C22.03125,87.7734375 21.9140625,87.65625 21.9140625,87.65625 L21.5625,87.3046875 L21.5625,22.8515625 Z M57.421875,123.867187 L60.3515625,131.601562 L56.1328125,127.382812 C55.78125,127.03125 55.1953125,127.03125 54.84375,127.382812 C54.4921875,127.734375 54.4921875,128.320312 54.84375,128.671875 L59.0625,132.890625 L51.328125,129.960937 L47.9296875,125.15625 L48.984375,124.101562 L52.6171875,120.46875 L57.421875,123.867187 Z M47.9296875,122.695312 L47.109375,123.515625 L18.046875,94.453125 C18.8671875,94.3359375 19.921875,93.8671875 20.7421875,93.1640625 C21.4453125,92.4609375 21.9140625,91.5234375 22.1484375,90.3515625 L51.2109375,119.414062 L47.9296875,122.695312 Z M14.296875,90.703125 C15.1171875,90.5859375 16.171875,90.1171875 16.9921875,89.4140625 C17.6953125,88.7109375 18.1640625,87.7734375 18.3984375,86.6015625 L20.5078125,88.7109375 C20.5078125,90.1171875 20.15625,91.171875 19.453125,91.875 C18.3984375,92.8125 16.9921875,92.9296875 16.40625,92.8125 L14.296875,90.703125 Z M2.8125,75.1171875 C3.984375,73.9453125 5.7421875,73.9453125 6.9140625,75.1171875 L16.7578125,84.9609375 C16.7578125,86.3671875 16.40625,87.421875 15.703125,88.125 C14.765625,89.0625 13.2421875,89.0625 12.65625,89.0625 L2.8125,79.21875 C1.7578125,78.1640625 1.7578125,76.2890625 2.8125,75.1171875 Z M21.5625,145.898437 L21.5625,100.429687 L23.671875,102.539062 L23.671875,145.429687 C23.671875,146.25 23.90625,146.953125 24.2578125,147.539062 L23.203125,147.539062 C22.265625,147.65625 21.5625,146.835937 21.5625,145.898437 Z M123.164062,147.65625 L29.0625,147.65625 L27.65625,147.65625 C26.484375,147.65625 25.546875,146.71875 25.546875,145.546875 L25.546875,104.414062 L45.9375,124.804687 L45,125.742187 C44.6484375,126.09375 44.6484375,126.679687 45,127.03125 C45.1171875,127.148437 45.3515625,127.265625 45.5859375,127.265625 C45.8203125,127.265625 46.0546875,127.148437 46.171875,127.03125 L46.7578125,126.445312 L50.0390625,131.132812 C50.0390625,131.25 50.15625,131.25 50.2734375,131.25 C50.390625,131.367187 50.5078125,131.484375 50.625,131.601562 L62.4609375,136.171875 C62.578125,136.171875 62.6953125,136.171875 62.8125,136.171875 C62.9296875,136.171875 63.046875,136.171875 63.1640625,136.054687 C63.28125,136.054687 63.3984375,135.9375 63.3984375,135.820312 C63.515625,135.703125 63.515625,135.703125 63.515625,135.585937 C63.515625,135.585937 63.515625,135.585937 63.515625,135.46875 C63.515625,135.351562 63.515625,135.351562 63.515625,135.234375 C63.515625,135.234375 63.515625,135.234375 63.515625,135.117187 C63.515625,135 63.515625,134.882812 63.515625,134.882812 L59.0625,123.046875 C58.9453125,122.929687 58.9453125,122.8125 58.828125,122.695312 C58.828125,122.578125 58.7109375,122.578125 58.59375,122.460937 L53.90625,119.179687 L54.375,118.710937 C54.7265625,118.359375 54.7265625,117.773437 54.375,117.421875 C54.0234375,117.070312 53.4375,117.070312 53.0859375,117.421875 L52.3828125,118.125 L25.4296875,91.171875 L25.4296875,23.90625 C25.4296875,22.3828125 26.6015625,21.2109375 28.125,21.2109375 L28.9453125,21.2109375 L106.992187,21.2109375 L106.992187,38.4375 C106.992187,38.90625 107.34375,39.375 107.929687,39.375 L125.15625,39.375 L125.15625,145.664062 C125.273438,146.71875 124.335938,147.65625 123.164062,147.65625 Z"/>
    <path fill="#FFCE5F" d="M113.320313,106.875 C113.320313,97.734375 105.820313,90.234375 96.6796875,90.234375 C87.5390625,90.234375 80.15625,97.734375 80.15625,106.875 C80.15625,111.914062 82.5,116.71875 86.484375,119.882812 L82.8515625,133.242187 C82.734375,133.59375 82.8515625,133.945312 83.203125,134.179687 C83.4375,134.414062 83.90625,134.414062 84.140625,134.296875 L87.421875,132.539062 L89.296875,135.703125 C89.4140625,135.9375 89.765625,136.171875 90.1171875,136.171875 C90.1171875,136.171875 90.234375,136.171875 90.234375,136.171875 C90.5859375,136.171875 90.8203125,135.820312 90.9375,135.585937 L94.3359375,123.398437 C95.15625,123.515625 95.9765625,123.632812 96.9140625,123.632812 C97.734375,123.632812 98.671875,123.515625 99.4921875,123.398437 L102.890625,135.585937 C103.007813,135.9375 103.242188,136.171875 103.59375,136.171875 C103.59375,136.171875 103.710938,136.171875 103.710938,136.171875 C104.0625,136.171875 104.296875,136.054687 104.53125,135.703125 L106.40625,132.539062 L109.6875,134.296875 C110.039063,134.414062 110.390625,134.414062 110.625,134.179687 C110.859375,133.945312 110.976563,133.59375 110.976563,133.242187 L107.34375,119.882812 C110.976563,116.71875 113.320313,111.914062 113.320313,106.875 Z M89.765625,132.890625 L88.4765625,130.78125 C88.359375,130.546875 88.0078125,130.3125 87.65625,130.3125 C87.5390625,130.3125 87.421875,130.3125 87.1875,130.429687 L84.9609375,131.601562 L87.890625,120.820312 C87.890625,120.820312 88.0078125,120.820312 88.0078125,120.820312 C88.125,120.820312 88.2421875,120.9375 88.2421875,120.9375 C88.4765625,121.054687 88.828125,121.289062 89.1796875,121.40625 C89.296875,121.523437 89.4140625,121.523437 89.53125,121.640625 C89.8828125,121.757812 90.1171875,121.875 90.46875,121.992187 C90.5859375,121.992187 90.703125,122.109375 90.8203125,122.109375 C91.171875,122.226562 91.640625,122.34375 91.9921875,122.460937 C92.109375,122.578125 92.2265625,122.578125 92.4609375,122.695312 L89.765625,132.890625 Z M94.1015625,121.40625 C93.984375,121.289062 93.8671875,121.289062 93.75,121.289062 C93.75,121.289062 93.75,121.289062 93.75,121.289062 C93.75,121.289062 93.75,121.289062 93.75,121.289062 C93.6328125,121.289062 93.515625,121.289062 93.3984375,121.289062 C93.1640625,121.289062 92.9296875,121.171875 92.578125,121.054687 C90.9375,120.585937 89.296875,119.765625 87.890625,118.710937 C84.140625,115.898437 81.796875,111.445312 81.796875,106.757812 C81.796875,98.5546875 88.4765625,91.9921875 96.5625,91.9921875 C104.765625,91.9921875 111.328125,98.671875 111.328125,106.757812 C111.328125,111.445312 109.101562,115.898437 105.234375,118.710937 C103.828125,119.765625 102.304688,120.46875 100.664062,121.054687 C100.429687,121.171875 100.195312,121.171875 99.84375,121.289062 C99.84375,121.289062 99.84375,121.289062 99.84375,121.289062 C99.84375,121.289062 99.84375,121.289062 99.7265625,121.289062 C99.7265625,121.289062 99.609375,121.289062 99.609375,121.289062 C99.609375,121.289062 99.609375,121.289062 99.4921875,121.289062 C99.4921875,121.289062 99.4921875,121.289062 99.4921875,121.289062 C99.375,121.289062 99.2578125,121.40625 99.2578125,121.40625 C99.2578125,121.40625 99.2578125,121.40625 99.2578125,121.40625 C97.734375,121.757812 95.859375,121.757812 94.1015625,121.40625 Z M106.171875,130.429687 C105.703125,130.195312 105.234375,130.3125 105,130.78125 L103.710938,132.890625 L101.015625,122.929687 C101.132813,122.929687 101.367188,122.8125 101.484375,122.695312 C101.835938,122.578125 102.304688,122.460937 102.65625,122.34375 C102.773438,122.34375 102.890625,122.226562 103.007813,122.226562 C103.359375,122.109375 103.59375,121.992187 103.945313,121.875 C104.0625,121.757812 104.179688,121.757812 104.296875,121.640625 C104.648438,121.523437 104.882813,121.289062 105.117188,121.171875 C105.234375,121.171875 105.351563,121.054687 105.351563,121.054687 C105.351563,121.054687 105.351563,121.054687 105.46875,121.054687 L108.398438,131.835937 L106.171875,130.429687 Z"/>
    <path fill="#FFCE5F" d="M106.523438,106.875 C106.523438,101.484375 102.070313,97.03125 96.6796875,97.03125 C91.2890625,97.03125 86.8359375,101.484375 86.8359375,106.875 C86.8359375,112.265625 91.2890625,116.71875 96.6796875,116.71875 C102.070313,116.71875 106.523438,112.265625 106.523438,106.875 Z M96.796875,114.960937 C92.34375,114.960937 88.7109375,111.328125 88.7109375,106.875 C88.7109375,102.421875 92.34375,98.7890625 96.796875,98.7890625 C101.25,98.7890625 104.882813,102.421875 104.882813,106.875 C104.765625,111.328125 101.25,114.960937 96.796875,114.960937 Z"/>
  </g>
</svg>
