<svg xmlns="http://www.w3.org/2000/svg" width="150" height="150" viewBox="0 0 150 150">
  <g fill="none" transform="translate(0 5)">
    <path fill="#CAC0FF" d="M10.4296875 37.3828125C10.8984375 37.3828125 11.3671875 37.03125 11.3671875 36.4453125L11.3671875 26.25C11.3671875 25.78125 11.015625 25.3125 10.4296875 25.3125 9.84375 25.3125 9.4921875 25.6640625 9.4921875 26.25L9.4921875 36.4453125C9.4921875 37.03125 9.9609375 37.3828125 10.4296875 37.3828125zM10.4296875 45.8203125C10.8984375 45.8203125 11.3671875 45.46875 11.3671875 44.8828125L11.3671875 41.25C11.3671875 40.78125 11.015625 40.3125 10.4296875 40.3125 9.84375 40.3125 9.4921875 40.6640625 9.4921875 41.25L9.4921875 44.8828125C9.4921875 45.46875 9.9609375 45.8203125 10.4296875 45.8203125zM131.484375 92.4609375C131.953125 92.4609375 132.421875 92.109375 132.421875 91.5234375L132.421875 81.328125C132.421875 80.859375 132.070312 80.390625 131.484375 80.390625 131.015625 80.390625 130.546875 80.7421875 130.546875 81.328125L130.546875 91.5234375C130.546875 92.109375 130.898438 92.4609375 131.484375 92.4609375zM130.546875 99.9609375C130.546875 100.429688 130.898438 100.898438 131.484375 100.898438 131.953125 100.898438 132.421875 100.546875 132.421875 99.9609375L132.421875 96.328125C132.421875 95.859375 132.070312 95.390625 131.484375 95.390625 131.015625 95.390625 130.546875 95.7421875 130.546875 96.328125L130.546875 99.9609375zM90 17.8125C92.2265625 17.8125 93.984375 16.0546875 93.984375 13.828125 93.984375 11.6015625 92.2265625 9.84375 90 9.84375 87.7734375 9.84375 86.015625 11.6015625 86.015625 13.828125 86.015625 16.0546875 87.7734375 17.8125 90 17.8125zM90 11.6015625C91.171875 11.6015625 92.2265625 12.5390625 92.2265625 13.828125 92.2265625 15 91.2890625 16.0546875 90 16.0546875 88.828125 16.0546875 87.7734375 15.1171875 87.7734375 13.828125 87.7734375 12.5390625 88.828125 11.6015625 90 11.6015625zM108.046875 96.9140625C105.820312 96.9140625 104.0625 98.671875 104.0625 100.898438 104.0625 103.125 105.820312 104.882813 108.046875 104.882813 110.273438 104.882813 112.03125 103.125 112.03125 100.898438 112.03125 98.671875 110.15625 96.9140625 108.046875 96.9140625zM108.046875 103.125C106.875 103.125 105.820312 102.1875 105.820312 100.898437 105.820312 99.7265625 106.757812 98.671875 108.046875 98.671875 109.21875 98.671875 110.273438 99.609375 110.273438 100.898437 110.273438 102.070312 109.21875 103.125 108.046875 103.125zM23.90625 6.9140625C23.90625 7.3828125 24.2578125 7.8515625 24.84375 7.8515625L37.5 7.8515625C37.96875 7.8515625 38.4375 7.5 38.4375 6.9140625 38.4375 6.328125 38.0859375 5.9765625 37.5 5.9765625L24.7265625 5.9765625C24.2578125 5.9765625 23.90625 6.4453125 23.90625 6.9140625zM16.5234375 7.8515625L20.625 7.8515625C21.09375 7.8515625 21.5625 7.5 21.5625 6.9140625 21.5625 6.328125 21.09375 5.9765625 20.625 5.9765625L16.5234375 5.9765625C16.0546875 5.9765625 15.5859375 6.328125 15.5859375 6.9140625 15.5859375 7.5 16.0546875 7.8515625 16.5234375 7.8515625zM16.5234375 3.3984375L25.3125 3.3984375C25.78125 3.3984375 26.25 3.046875 26.25 2.4609375 26.25 1.875 25.78125 1.640625 25.3125 1.640625L16.5234375 1.640625C16.0546875 1.640625 15.5859375 1.9921875 15.5859375 2.578125 15.5859375 3.1640625 16.0546875 3.3984375 16.5234375 3.3984375zM29.0625 3.3984375L31.875 3.3984375C32.34375 3.3984375 32.8125 3.046875 32.8125 2.4609375 32.8125 1.875 32.4609375 1.5234375 31.875 1.5234375L29.0625 1.5234375C28.59375 1.5234375 28.125 1.875 28.125 2.4609375 28.125 3.046875 28.59375 3.3984375 29.0625 3.3984375zM135 128.90625C135 128.4375 134.648438 127.96875 134.0625 127.96875L121.40625 127.96875C120.9375 127.96875 120.46875 128.320312 120.46875 128.90625 120.46875 129.375 120.820313 129.84375 121.40625 129.84375L134.0625 129.84375C134.648438 129.84375 135 129.492188 135 128.90625zM142.382812 128.085938L138.28125 128.085938C137.8125 128.085938 137.34375 128.4375 137.34375 129.023438 137.34375 129.492188 137.695312 129.960938 138.28125 129.960938L142.382812 129.960938C142.851562 129.960938 143.320312 129.609375 143.320312 129.023438 143.320312 128.4375 142.851562 128.085938 142.382812 128.085938zM142.382812 132.421875L133.59375 132.421875C133.125 132.421875 132.65625 132.773438 132.65625 133.359375 132.65625 133.828125 133.007812 134.296875 133.59375 134.296875L142.382812 134.296875C142.851562 134.296875 143.320312 133.945312 143.320312 133.359375 143.320312 132.773438 142.851562 132.421875 142.382812 132.421875zM129.84375 132.421875L127.03125 132.421875C126.5625 132.421875 126.09375 132.773438 126.09375 133.359375 126.09375 133.828125 126.445312 134.296875 127.03125 134.296875L129.84375 134.296875C130.3125 134.296875 130.78125 133.945312 130.78125 133.359375 130.664062 132.773438 130.3125 132.421875 129.84375 132.421875zM62.8125 3.515625C62.9296875 3.6328125 63.1640625 3.75 63.3984375 3.75 63.6328125 3.75 63.8671875 3.6328125 63.984375 3.515625 64.3359375 3.1640625 64.3359375 2.578125 63.984375 2.2265625L62.34375.5859375C61.9921875.234375 61.40625.234375 61.0546875.5859375 60.703125.9375 60.703125 1.5234375 61.0546875 1.875L62.8125 3.515625zM68.203125 8.90625C68.3203125 9.0234375 68.5546875 9.140625 68.7890625 9.140625 69.0234375 9.140625 69.2578125 9.0234375 69.375 8.90625 69.7265625 8.5546875 69.7265625 7.96875 69.375 7.6171875L67.734375 5.9765625C67.3828125 5.625 66.796875 5.625 66.4453125 5.9765625 66.09375 6.328125 66.09375 6.9140625 66.4453125 7.265625L68.203125 8.90625zM61.7578125 9.140625C61.9921875 9.140625 62.2265625 9.0234375 62.34375 8.90625L63.984375 7.265625C64.3359375 6.9140625 64.3359375 6.328125 63.984375 5.9765625 63.6328125 5.625 63.046875 5.625 62.6953125 5.9765625L61.0546875 7.6171875C60.703125 7.96875 60.703125 8.5546875 61.0546875 8.90625 61.40625 9.0234375 61.640625 9.140625 61.7578125 9.140625zM67.265625 3.75C67.5 3.75 67.734375 3.6328125 67.8515625 3.515625L69.4921875 1.875C69.84375 1.5234375 69.84375.9375 69.4921875.5859375 69.140625.234375 68.5546875.234375 68.203125.5859375L66.5625 2.2265625C66.2109375 2.578125 66.2109375 3.1640625 66.5625 3.515625 66.796875 3.6328125 67.03125 3.75 67.265625 3.75zM12.1875 96.09375C12.3046875 96.2109375 12.5390625 96.328125 12.7734375 96.328125 13.0078125 96.328125 13.2421875 96.2109375 13.359375 96.09375 13.7109375 95.7421875 13.7109375 95.15625 13.359375 94.8046875L11.71875 93.1640625C11.3671875 92.8125 10.78125 92.8125 10.4296875 93.1640625 10.078125 93.515625 10.078125 94.1015625 10.4296875 94.453125L12.1875 96.09375zM15.8203125 99.84375L17.4609375 101.484375C17.578125 101.601562 17.8125 101.71875 18.046875 101.71875 18.28125 101.71875 18.515625 101.601563 18.6328125 101.484375 18.984375 101.132813 18.984375 100.546875 18.6328125 100.195313L16.9921875 98.5546875C16.640625 98.203125 16.0546875 98.203125 15.703125 98.5546875 15.5859375 98.90625 15.5859375 99.4921875 15.8203125 99.84375zM10.4296875 101.484375C10.546875 101.601562 10.78125 101.71875 11.015625 101.71875 11.25 101.71875 11.484375 101.601562 11.6015625 101.484375L13.2421875 99.84375C13.59375 99.4921875 13.59375 98.90625 13.2421875 98.5546875 12.890625 98.203125 12.3046875 98.203125 11.953125 98.5546875L10.3125 100.195312C10.078125 100.664063 10.078125 101.132812 10.4296875 101.484375zM16.5234375 96.328125C16.7578125 96.328125 16.9921875 96.2109375 17.109375 96.09375L18.75 94.453125C19.1015625 94.1015625 19.1015625 93.515625 18.75 93.1640625 18.3984375 92.8125 17.8125 92.8125 17.4609375 93.1640625L15.8203125 94.921875C15.46875 95.2734375 15.46875 95.859375 15.8203125 96.2109375 16.0546875 96.328125 16.2890625 96.328125 16.5234375 96.328125z"/>
    <path fill="#FFEABA" d="M107.226562,10.3125 C113.320312,4.1015625 123.28125,4.1015625 129.492188,10.1953125 C135.703125,16.2890625 135.703125,26.25 129.609375,32.4609375 C129.257812,32.8125 129.257812,33.3984375 129.609375,33.75 C129.726562,33.8671875 129.960937,33.984375 130.195312,33.984375 C130.429688,33.984375 130.664062,33.8671875 130.78125,33.75 C137.578125,26.8359375 137.460938,15.8203125 130.664062,9.0234375 C123.75,2.2265625 112.734375,2.34375 105.9375,9.140625 C105.585938,9.4921875 105.585938,10.078125 105.9375,10.4296875 C106.289062,10.6640625 106.875,10.6640625 107.226562,10.3125 Z"/>
    <path fill="#FFEABA" d="M125.976562,30.1171875 C126.09375,30.234375 126.328125,30.3515625 126.5625,30.3515625 C126.796875,30.3515625 127.03125,30.234375 127.148438,30.1171875 C131.953125,25.3125 131.953125,17.34375 127.03125,12.65625 C122.226562,7.8515625 114.257812,7.8515625 109.570312,12.7734375 C109.21875,13.125 109.21875,13.7109375 109.570312,14.0625 C109.921875,14.4140625 110.507812,14.4140625 110.859375,14.0625 C114.960937,9.84375 121.757812,9.84375 125.859375,13.9453125 C130.078125,18.046875 130.078125,24.84375 125.976562,28.9453125 C125.625,29.1796875 125.625,29.765625 125.976562,30.1171875 Z"/>
    <path fill="#FFEABA" d="M122.34375,26.484375 C122.460938,26.6015625 122.695312,26.71875 122.929688,26.71875 C123.164063,26.71875 123.398438,26.6015625 123.515625,26.484375 C124.921875,25.078125 125.625,23.3203125 125.625,21.328125 C125.625,19.3359375 124.804688,17.578125 123.515625,16.171875 C122.109375,14.765625 120.351562,14.0625 118.359375,14.0625 C118.359375,14.0625 118.359375,14.0625 118.359375,14.0625 C116.367188,14.0625 114.609375,14.8828125 113.203125,16.171875 C112.851562,16.5234375 112.851562,17.109375 113.203125,17.4609375 C113.554687,17.8125 114.140625,17.8125 114.492187,17.4609375 C115.546875,16.40625 116.953125,15.8203125 118.359375,15.8203125 C118.359375,15.8203125 118.359375,15.8203125 118.359375,15.8203125 C119.765625,15.8203125 121.171875,16.40625 122.226562,17.4609375 C123.28125,18.515625 123.867187,19.921875 123.867187,21.328125 C123.867187,22.8515625 123.28125,24.140625 122.226562,25.1953125 C121.992188,25.546875 121.992188,26.1328125 122.34375,26.484375 Z"/>
    <path fill="#FFCE5F" d="M149.414062,61.40625 C149.414062,60.234375 148.945312,59.1796875 148.125,58.359375 L140.976562,51.2109375 C139.804688,50.0390625 137.34375,48.6328125 133.945312,52.1484375 C133.828125,52.265625 133.710938,52.265625 133.59375,52.3828125 L133.59375,52.3828125 C133.359375,52.5 133.007812,52.6171875 132.773438,52.6171875 C132.421875,52.6171875 132.1875,52.6171875 131.953125,52.5 C131.835938,52.5 131.71875,52.3828125 131.367188,52.1484375 C131.015625,51.9140625 130.78125,51.6796875 130.78125,51.5625 L118.59375,39.375 C118.007812,38.90625 117.773438,38.3203125 117.65625,37.734375 C117.539063,37.265625 117.65625,36.796875 117.773438,36.4453125 L117.773438,36.4453125 C117.890625,36.328125 117.890625,36.2109375 118.007812,36.2109375 L118.945312,35.2734375 C119.765625,34.453125 120.234375,33.3984375 120.234375,32.2265625 C120.234375,31.0546875 119.765625,30 118.945312,29.1796875 L111.796875,22.03125 C110.15625,20.390625 107.34375,20.390625 105.703125,22.03125 C105.46875,22.265625 105.234375,22.5 105,22.8515625 L105,22.8515625 L104.179688,23.4375 L104.179688,23.4375 C104.179688,23.4375 104.179688,23.4375 104.179688,23.4375 L103.710938,24.0234375 L103.710938,24.0234375 C101.601562,26.953125 100.546875,30.5859375 100.78125,34.3359375 C101.015625,38.3203125 102.65625,42.0703125 105.46875,44.8828125 L125.15625,64.453125 C127.96875,67.265625 131.71875,68.90625 135.703125,69.140625 C136.054688,69.140625 136.40625,69.140625 136.640625,69.140625 C140.039062,69.140625 143.203125,68.0859375 145.898438,66.2109375 L145.898438,66.2109375 L146.484375,65.7421875 C146.484375,65.7421875 146.484375,65.7421875 146.484375,65.7421875 C146.484375,65.7421875 146.484375,65.7421875 146.484375,65.7421875 L147.304688,65.15625 L147.304688,65.15625 C147.539062,64.921875 147.773438,64.6875 148.125,64.453125 C148.945312,63.6328125 149.414062,62.4609375 149.414062,61.40625 Z M106.757812,23.0859375 C107.695312,22.1484375 109.453125,22.1484375 110.390625,23.0859375 L117.539062,30.234375 C118.007812,30.703125 118.242187,31.40625 118.242187,31.9921875 C118.242187,32.6953125 118.007812,33.28125 117.539062,33.75 L116.835937,34.453125 L106.054687,23.671875 C106.289062,23.5546875 106.523438,23.3203125 106.757812,23.0859375 Z M135.820312,67.3828125 C132.304688,67.1484375 128.90625,65.625 126.445313,63.1640625 L106.757812,43.59375 C104.296875,41.1328125 102.773437,37.734375 102.539062,34.21875 C102.304688,31.0546875 103.242187,27.890625 105,25.3125 L115.898438,36.2109375 C115.78125,36.796875 115.664062,37.3828125 115.78125,37.96875 C116.015625,38.90625 116.484375,39.84375 117.304688,40.546875 L129.375,52.6171875 C129.609375,52.8515625 130.078125,53.203125 130.195312,53.4375 C130.78125,53.90625 131.132812,54.0234375 131.132812,54.140625 C131.71875,54.375 132.304688,54.4921875 132.890625,54.4921875 C133.242188,54.4921875 133.59375,54.375 133.945312,54.2578125 L141.445312,61.7578125 L144.726562,65.0390625 C142.148438,66.6796875 138.984375,67.6171875 135.820312,67.3828125 Z M146.953125,63.1640625 C146.71875,63.3984375 146.484375,63.6328125 146.132812,63.8671875 L135.351562,53.0859375 C137.929688,50.625 139.21875,51.796875 139.6875,52.3828125 L146.835938,59.53125 C147.304688,60 147.539062,60.703125 147.539062,61.2890625 C147.65625,61.9921875 147.421875,62.6953125 146.953125,63.1640625 Z"/>
    <path fill="#CAC0FF" d="M74.0625,124.921875 L94.921875,124.921875 C95.390625,124.921875 95.859375,124.570312 95.859375,123.984375 C95.859375,123.515625 95.5078125,123.046875 94.921875,123.046875 L74.0625,123.046875 C73.59375,123.046875 73.125,123.398438 73.125,123.984375 C73.2421875,124.570312 73.59375,124.921875 74.0625,124.921875 Z"/>
    <path fill="#5B46CD" d="M111.5625,139.335938 C111.5625,139.335938 111.5625,139.21875 111.5625,139.21875 C110.15625,134.414063 108.75,129.726563 107.226562,125.039063 C103.828125,114.140625 93.8671875,108.046875 81.2109375,108.984375 L79.453125,109.101563 C77.6953125,109.21875 76.171875,109.335938 74.1796875,109.453125 C73.359375,107.695312 70.3125,100.546875 74.0625,90.46875 C74.296875,90.1171875 74.6484375,89.8828125 74.8828125,89.53125 L91.640625,89.53125 C91.7578125,89.53125 91.875,89.53125 91.9921875,89.4140625 C91.9921875,89.4140625 91.9921875,89.4140625 92.109375,89.4140625 C92.2265625,89.4140625 92.2265625,89.296875 92.34375,89.296875 C92.34375,89.296875 92.34375,89.296875 92.4609375,89.1796875 C92.4609375,89.1796875 92.578125,89.0625 92.578125,88.9453125 C92.578125,88.9453125 92.578125,88.9453125 92.578125,88.828125 C92.578125,88.828125 92.578125,88.828125 92.578125,88.828125 L94.453125,83.7890625 C99.9609375,82.8515625 104.648437,78.6328125 105.703125,72.7734375 C106.992187,65.625 102.421875,58.828125 95.5078125,57.0703125 C95.7421875,55.6640625 95.7421875,54.140625 95.7421875,52.6171875 C95.859375,30.8203125 78.046875,12.890625 56.1328125,12.890625 C34.21875,12.890625 16.40625,30.8203125 16.40625,52.734375 C16.40625,54.2578125 16.5234375,55.78125 16.640625,57.1875 C9.7265625,58.828125 5.15625,65.7421875 6.4453125,72.890625 C7.1484375,76.5234375 9.140625,79.5703125 12.0703125,81.6796875 C14.4140625,83.3203125 17.109375,84.140625 19.8046875,84.140625 C20.625,84.140625 21.4453125,84.0234375 22.265625,83.90625 C22.734375,83.7890625 23.0859375,83.3203125 22.96875,82.8515625 L18.3984375,57.890625 C18.3984375,57.890625 18.3984375,57.7734375 18.3984375,57.7734375 C18.1640625,56.25 18.046875,54.4921875 18.046875,52.734375 C18.046875,31.7578125 35.0390625,14.765625 56.015625,14.765625 C76.9921875,14.765625 93.984375,31.7578125 93.984375,52.734375 C93.984375,54.4921875 93.8671875,56.1328125 93.6328125,57.65625 C93.6328125,57.65625 93.6328125,57.7734375 93.6328125,57.7734375 L89.0625,82.8515625 C89.0625,83.0859375 89.0625,83.3203125 89.1796875,83.5546875 C89.296875,83.7890625 89.53125,83.90625 89.765625,83.90625 C90.5859375,84.0234375 91.40625,84.140625 92.2265625,84.140625 C92.34375,84.140625 92.34375,84.140625 92.4609375,84.140625 L91.0546875,87.890625 L76.40625,87.890625 C78.75,84.84375 80.625,81.2109375 82.03125,77.109375 C82.1484375,77.109375 82.265625,77.109375 82.3828125,77.109375 C85.4296875,77.109375 87.65625,72.65625 87.65625,66.6796875 C87.65625,61.640625 86.015625,57.5390625 83.671875,56.484375 L83.671875,56.1328125 C84.140625,52.8515625 84.4921875,49.3359375 84.7265625,45.9375 C85.6640625,30.5859375 81.4453125,29.296875 74.4140625,27.1875 C73.828125,26.953125 73.2421875,26.8359375 72.65625,26.6015625 C66.5625,24.609375 60.3515625,24.2578125 56.1328125,24.140625 C51.9140625,24.140625 45.703125,24.609375 39.609375,26.6015625 C39.0234375,26.8359375 38.4375,26.953125 37.8515625,27.1875 C30.8203125,29.4140625 26.484375,30.703125 27.5390625,45.9375 C27.7734375,49.3359375 28.2421875,52.8515625 28.59375,56.1328125 L28.59375,56.484375 C26.25,57.5390625 24.609375,61.640625 24.609375,66.6796875 C24.609375,72.65625 26.8359375,77.109375 29.8828125,77.109375 C30,77.109375 30.1171875,77.109375 30.234375,77.109375 C31.9921875,82.3828125 34.6875,86.8359375 37.96875,90.46875 C41.71875,100.546875 38.671875,107.8125 37.734375,109.570312 C35.859375,109.453125 34.3359375,109.335938 32.578125,109.21875 L30.9375,108.984375 C18.28125,108.046875 8.3203125,114.140625 4.921875,124.921875 C3.3984375,129.492188 1.9921875,134.296875 0.5859375,139.101562 C0.5859375,139.101562 0.5859375,139.21875 0.5859375,139.21875 C0.5859375,139.21875 0.5859375,139.335937 0.5859375,139.335937 C0.5859375,139.335937 0.5859375,139.335937 0.5859375,139.335937 C0.5859375,139.453125 0.5859375,139.453125 0.5859375,139.570312 C0.5859375,139.570312 0.5859375,139.6875 0.5859375,139.6875 C0.5859375,139.6875 0.703125,139.804687 0.703125,139.804687 C0.703125,139.804687 0.8203125,139.921875 0.8203125,139.921875 C0.8203125,139.921875 0.9375,140.039062 0.9375,140.039062 C0.9375,140.039062 1.0546875,140.15625 1.0546875,140.15625 C1.0546875,140.15625 1.0546875,140.15625 1.0546875,140.15625 C1.171875,140.15625 1.171875,140.15625 1.2890625,140.15625 C1.2890625,140.15625 1.2890625,140.15625 1.2890625,140.15625 L110.507812,140.15625 L110.507812,140.15625 C110.625,140.15625 110.625,140.15625 110.742188,140.15625 C110.742188,140.15625 110.742188,140.15625 110.742188,140.15625 C110.742188,140.15625 110.859375,140.15625 110.859375,140.039062 C110.859375,140.039062 110.976562,140.039062 110.976562,139.921875 C110.976562,139.921875 111.09375,139.804687 111.09375,139.804687 C111.09375,139.804687 111.210937,139.6875 111.210937,139.6875 C111.210937,139.6875 111.210937,139.570312 111.210937,139.570312 C111.210937,139.453125 111.210937,139.453125 111.210937,139.335937 C111.210937,139.335937 111.210937,139.335937 111.210937,139.335937 C111.5625,139.335938 111.5625,139.335938 111.5625,139.335938 Z M13.125,80.15625 C10.546875,78.3984375 8.7890625,75.5859375 8.203125,72.5390625 C7.03125,66.328125 10.8984375,60.46875 16.875,58.9453125 L21.09375,82.265625 C18.28125,82.5 15.46875,81.796875 13.125,80.15625 Z M91.0546875,82.265625 L95.2734375,58.9453125 C101.25,60.46875 105.117188,66.4453125 103.945312,72.5390625 C102.890625,78.6328125 97.1484375,82.8515625 91.0546875,82.265625 Z M38.3203125,28.59375 C38.90625,28.359375 39.4921875,28.2421875 40.1953125,28.0078125 C44.8828125,26.484375 50.390625,25.6640625 56.1328125,25.6640625 C61.9921875,25.6640625 67.5,26.484375 72.0703125,28.0078125 C72.65625,28.2421875 73.359375,28.359375 73.9453125,28.59375 C80.625,30.703125 83.90625,31.640625 83.0859375,45.5859375 C82.96875,47.4609375 82.734375,49.3359375 82.6171875,51.328125 C81.5625,47.8125 79.6875,43.828125 76.5234375,43.4765625 C71.484375,42.890625 58.125,43.0078125 57.5390625,43.0078125 C57.5390625,43.0078125 51.796875,43.359375 45.5859375,37.3828125 C45.3515625,37.1484375 45.1171875,37.1484375 44.8828125,37.1484375 C44.6484375,37.1484375 44.4140625,37.265625 44.296875,37.5 C43.359375,38.7890625 42.421875,41.3671875 43.7109375,43.9453125 C40.546875,43.359375 35.2734375,42.890625 33.3984375,45.1171875 C32.109375,46.640625 30.9375,49.5703125 30.1171875,52.1484375 C29.8828125,49.921875 29.6484375,47.8125 29.53125,45.5859375 C28.359375,31.7578125 31.640625,30.703125 38.3203125,28.59375 Z M31.0546875,75.1171875 C30.9375,75.1171875 30.8203125,75 30.703125,75 C30.5859375,75 30.46875,75 30.3515625,75.1171875 C30.1171875,75.234375 30,75.234375 29.765625,75.234375 C28.125,75.234375 26.25,71.6015625 26.25,66.5625 C26.25,61.9921875 27.7734375,58.7109375 29.1796875,58.0078125 C29.1796875,58.0078125 29.296875,58.0078125 29.296875,58.0078125 C29.6484375,58.0078125 30.1171875,57.7734375 30.1171875,57.3046875 C30.1171875,57.1875 31.9921875,49.1015625 34.3359375,46.40625 C35.859375,44.6484375 42.0703125,45.3515625 45.5859375,46.2890625 C45.9375,46.40625 46.40625,46.171875 46.640625,45.8203125 C46.875,45.46875 46.7578125,45 46.40625,44.765625 C43.9453125,42.890625 44.4140625,40.78125 44.8828125,39.609375 C51.328125,45.3515625 57.1875,45 57.3046875,45 C57.421875,45 71.1328125,44.8828125 76.0546875,45.46875 C79.5703125,45.8203125 81.4453125,54.375 81.796875,57.421875 C81.9140625,57.890625 82.265625,58.2421875 82.734375,58.2421875 C82.734375,58.2421875 82.734375,58.2421875 82.734375,58.2421875 C84.2578125,58.9453125 85.6640625,62.2265625 85.6640625,66.796875 C85.6640625,71.953125 83.7890625,75.46875 82.1484375,75.46875 C81.9140625,75.46875 81.796875,75.46875 81.5625,75.3515625 C81.328125,75.234375 81.09375,75.234375 80.859375,75.3515625 C80.625,75.46875 80.5078125,75.703125 80.390625,75.9375 C78.984375,80.625 76.7578125,84.7265625 73.9453125,88.0078125 L62.578125,88.0078125 C62.2265625,86.8359375 61.171875,85.8984375 59.8828125,85.8984375 L51.9140625,85.8984375 C50.390625,85.8984375 49.1015625,87.1875 49.1015625,88.7109375 L49.1015625,88.9453125 C49.1015625,90.46875 50.390625,91.7578125 51.9140625,91.7578125 L59.8828125,91.7578125 C61.171875,91.7578125 62.2265625,90.8203125 62.578125,89.6484375 L72.65625,89.6484375 C68.0859375,94.3359375 62.34375,96.9140625 56.1328125,96.9140625 C49.921875,96.9140625 44.0625,94.21875 39.4921875,89.4140625 C39.4921875,89.4140625 39.4921875,89.4140625 39.4921875,89.4140625 C39.375,89.1796875 39.2578125,89.0625 39.0234375,88.9453125 C35.859375,85.4296875 33.28125,80.9765625 31.640625,75.8203125 C31.5234375,75.46875 31.2890625,75.234375 31.0546875,75.1171875 Z M61.171875,88.7109375 C61.171875,89.296875 60.703125,89.765625 60.1171875,89.765625 L52.1484375,89.765625 C51.5625,89.765625 51.09375,89.296875 51.09375,88.7109375 L51.09375,88.4765625 C51.09375,87.890625 51.5625,87.421875 52.1484375,87.421875 L60.1171875,87.421875 C60.703125,87.421875 61.171875,87.890625 61.171875,88.4765625 L61.171875,88.7109375 Z M40.546875,92.8125 C45,96.5625 50.390625,98.671875 56.1328125,98.671875 C61.7578125,98.671875 67.03125,96.5625 71.6015625,92.9296875 C68.7890625,103.125 72.421875,109.804688 73.0078125,110.742188 C73.125,110.859375 73.125,111.09375 73.359375,111.09375 C70.78125,115.195313 67.96875,118.945313 64.921875,122.34375 L62.578125,112.734375 L65.625,107.578125 C65.7421875,107.34375 65.7421875,106.992188 65.625,106.640625 C65.5078125,106.40625 65.15625,106.171875 64.8046875,106.171875 L47.578125,106.171875 C47.2265625,106.171875 46.9921875,106.289062 46.7578125,106.640625 C46.640625,106.875 46.640625,107.226562 46.7578125,107.578125 L49.8046875,112.851562 L47.4609375,122.460938 C44.765625,119.53125 41.71875,115.78125 38.7890625,110.976562 C38.90625,110.859375 38.90625,110.859375 38.90625,110.742188 C39.4921875,109.921875 43.2421875,103.125 40.546875,92.8125 Z M56.1328125,129.726562 C55.078125,129.023438 52.3828125,127.148438 48.984375,123.75 C49.1015625,123.632813 49.21875,123.515625 49.21875,123.28125 L51.6796875,113.320312 L60.8203125,113.320312 L63.28125,123.28125 C63.28125,123.398438 63.3984375,123.515625 63.515625,123.632812 C59.8828125,127.148438 57.0703125,129.023438 56.1328125,129.726562 Z M60.9375,111.5625 L51.2109375,111.5625 L49.1015625,107.929688 L63.1640625,107.929688 L60.9375,111.5625 Z M6.6796875,125.507812 C9.84375,115.546875 19.1015625,109.804687 30.8203125,110.742188 L32.4609375,110.859375 C33.984375,110.976562 35.390625,111.09375 37.03125,111.09375 C45.703125,125.625 55.3125,131.25 55.78125,131.484375 C55.8984375,131.601562 56.015625,131.601562 56.25,131.601562 C56.25,131.601562 56.25,131.601562 56.25,131.601562 C56.25,131.601562 56.25,131.601562 56.25,131.601562 C56.3671875,131.601562 56.6015625,131.601562 56.71875,131.484375 C56.8359375,131.367188 60.234375,129.492188 64.8046875,124.921875 C68.7890625,120.9375 72.3046875,116.367188 75.3515625,111.210937 C76.875,111.09375 78.1640625,111.09375 79.6875,110.976562 L81.4453125,110.859375 C93.28125,109.921875 102.539062,115.664062 105.585937,125.625 C106.992187,129.84375 108.28125,134.179688 109.570312,138.632812 L2.6953125,138.632812 C3.984375,134.179688 5.2734375,129.726562 6.6796875,125.507812 Z"/>
  </g>
</svg>
