<svg xmlns="http://www.w3.org/2000/svg" width="150" height="150" viewBox="0 0 150 150">
  <g fill="none" transform="translate(0 4)">
    <path fill="#CAC0FF" d="M5.5078125 58.828125C5.9765625 58.828125 6.328125 58.4765625 6.328125 58.0078125L6.328125 45.9375C6.328125 45.46875 5.9765625 45.1171875 5.5078125 45.1171875 5.0390625 45.1171875 4.6875 45.46875 4.6875 45.9375L4.6875 58.0078125C4.5703125 58.4765625 4.921875 58.828125 5.5078125 58.828125zM5.5078125 66.796875C5.9765625 66.796875 6.328125 66.4453125 6.328125 65.9765625L6.328125 62.109375C6.328125 61.640625 5.9765625 61.2890625 5.5078125 61.2890625 5.0390625 61.2890625 4.6875 61.640625 4.6875 62.109375L4.6875 65.9765625C4.5703125 66.4453125 4.921875 66.796875 5.5078125 66.796875z"/>
    <path fill="#FFEABA" d="M146.132812 101.835938C145.664062 101.835938 145.3125 102.1875 145.3125 102.65625L145.3125 114.726563C145.3125 115.195313 145.664062 115.546875 146.132812 115.546875 146.601562 115.546875 146.953125 115.195313 146.953125 114.726563L146.953125 102.65625C147.070312 102.1875 146.601562 101.835938 146.132812 101.835938zM146.132812 117.890625C145.664062 117.890625 145.3125 118.242188 145.3125 118.710938L145.3125 122.578125C145.3125 123.046875 145.664062 123.398438 146.132812 123.398438 146.601562 123.398438 146.953125 123.046875 146.953125 122.578125L146.953125 118.710938C147.070312 118.242188 146.601562 117.890625 146.132812 117.890625z"/>
    <path fill="#CAC0FF" d="M137.34375 26.3671875C137.460938 26.484375 137.695312 26.6015625 137.929688 26.6015625 138.164062 26.6015625 138.398438 26.484375 138.515625 26.3671875 138.867188 26.015625 138.867188 25.4296875 138.515625 25.1953125L136.640625 23.3203125C136.289063 22.96875 135.703125 22.96875 135.46875 23.3203125 135.117188 23.671875 135.117188 24.2578125 135.46875 24.4921875L137.34375 26.3671875zM143.320312 32.2265625C143.4375 32.34375 143.671875 32.4609375 143.90625 32.4609375 144.140625 32.4609375 144.375 32.34375 144.492188 32.2265625 144.84375 31.875 144.84375 31.2890625 144.492188 31.0546875L142.617188 29.1796875C142.265625 28.828125 141.679688 28.828125 141.445312 29.1796875 141.09375 29.53125 141.09375 30.1171875 141.445312 30.3515625L143.320312 32.2265625zM136.171875 32.578125C136.40625 32.578125 136.640625 32.4609375 136.757812 32.34375L138.632812 30.46875C138.984375 30.1171875 138.984375 29.53125 138.632812 29.296875 138.28125 28.9453125 137.695312 28.9453125 137.460938 29.296875L135.585938 31.171875C135.234375 31.5234375 135.234375 32.109375 135.585938 32.34375 135.703125 32.4609375 135.9375 32.578125 136.171875 32.578125zM142.148438 26.6015625C142.382812 26.6015625 142.617188 26.484375 142.734375 26.3671875L144.609375 24.4921875C144.960937 24.140625 144.960937 23.5546875 144.609375 23.3203125 144.257812 22.96875 143.671875 22.96875 143.4375 23.3203125L141.5625 25.1953125C141.210938 25.546875 141.210938 26.1328125 141.5625 26.3671875 141.679688 26.484375 141.914062 26.6015625 142.148438 26.6015625z"/>
    <path fill="#FFEABA" d="M6.4453125 112.03125C6.09375 111.679688 5.5078125 111.679688 5.2734375 112.03125 4.921875 112.382812 4.921875 112.96875 5.2734375 113.203125L7.1484375 115.078125C7.265625 115.195312 7.5 115.3125 7.734375 115.3125 7.96875 115.3125 8.203125 115.195312 8.3203125 115.078125 8.671875 114.726562 8.671875 114.140625 8.3203125 113.90625L6.4453125 112.03125zM12.421875 118.007813C12.0703125 117.65625 11.484375 117.65625 11.25 118.007813 10.8984375 118.359375 10.8984375 118.945312 11.25 119.179688L13.125 121.054688C13.2421875 121.171875 13.4765625 121.289062 13.7109375 121.289062 13.9453125 121.289062 14.1796875 121.171875 14.296875 121.054688 14.6484375 120.703125 14.6484375 120.117188 14.296875 119.882812L12.421875 118.007813zM7.03125 118.007813L5.15625 119.882812C4.8046875 120.234375 4.8046875 120.820312 5.15625 121.054688 5.2734375 121.171875 5.5078125 121.289062 5.7421875 121.289062 5.9765625 121.289062 6.2109375 121.171875 6.328125 121.054688L8.203125 119.179688C8.5546875 118.828125 8.5546875 118.242188 8.203125 118.007813 7.8515625 117.65625 7.3828125 117.65625 7.03125 118.007813zM13.0078125 112.03125L11.1328125 113.90625C10.78125 114.257812 10.78125 114.84375 11.1328125 115.078125 11.25 115.195312 11.484375 115.3125 11.71875 115.3125 11.953125 115.3125 12.1875 115.195312 12.3046875 115.078125L14.1796875 113.203125C14.53125 112.851562 14.53125 112.265625 14.1796875 112.03125 13.828125 111.679688 13.359375 111.679688 13.0078125 112.03125z"/>
    <path fill="#CAC0FF" d="M102.421875,25.8984375 C104.648438,25.8984375 106.40625,24.140625 106.40625,21.9140625 C106.40625,19.6875 104.648438,17.9296875 102.421875,17.9296875 C100.195312,17.9296875 98.4375,19.6875 98.4375,21.9140625 C98.4375,24.140625 100.195312,25.8984375 102.421875,25.8984375 Z M102.421875,19.6875 C103.59375,19.6875 104.648438,20.625 104.648438,21.9140625 C104.648438,23.0859375 103.710938,24.140625 102.421875,24.140625 C101.25,24.140625 100.195312,23.203125 100.195312,21.9140625 C100.195312,20.7421875 101.132812,19.6875 102.421875,19.6875 Z"/>
    <path fill="#FFEABA" d="M35.15625,134.414062 C32.9296875,134.414062 31.171875,136.171875 31.171875,138.398438 C31.171875,140.625 32.9296875,142.382813 35.15625,142.382813 C37.3828125,142.382813 39.140625,140.625 39.140625,138.398438 C39.140625,136.171875 37.3828125,134.414062 35.15625,134.414062 Z M35.15625,140.625 C33.984375,140.625 32.9296875,139.6875 32.9296875,138.398438 C32.9296875,137.226562 33.8671875,136.171875 35.15625,136.171875 C36.328125,136.171875 37.3828125,137.109375 37.3828125,138.398438 C37.3828125,139.570312 36.4453125,140.625 35.15625,140.625 Z"/>
    <path fill="#CAC0FF" d="M21.328125 23.90625C21.328125 24.375 21.6796875 24.7265625 22.1484375 24.7265625L36.6796875 24.7265625C37.1484375 24.7265625 37.5 24.375 37.5 23.90625 37.5 23.4375 37.1484375 23.0859375 36.6796875 23.0859375L22.1484375 23.0859375C21.6796875 22.96875 21.328125 23.4375 21.328125 23.90625zM12.65625 24.7265625L17.34375 24.7265625C17.8125 24.7265625 18.1640625 24.375 18.1640625 23.90625 18.1640625 23.4375 17.8125 23.0859375 17.34375 23.0859375L12.65625 23.0859375C12.1875 23.0859375 11.8359375 23.4375 11.8359375 23.90625 11.8359375 24.375 12.1875 24.7265625 12.65625 24.7265625zM12.65625 19.6875L22.8515625 19.6875C23.3203125 19.6875 23.671875 19.3359375 23.671875 18.8671875 23.671875 18.3984375 23.3203125 18.046875 22.8515625 18.046875L12.65625 18.046875C12.1875 18.046875 11.8359375 18.3984375 11.8359375 18.8671875 11.8359375 19.3359375 12.1875 19.6875 12.65625 19.6875zM27.1875 19.6875L30.46875 19.6875C30.9375 19.6875 31.2890625 19.3359375 31.2890625 18.8671875 31.2890625 18.3984375 30.9375 18.046875 30.46875 18.046875L27.1875 18.046875C26.71875 18.046875 26.3671875 18.3984375 26.3671875 18.8671875 26.3671875 19.3359375 26.71875 19.6875 27.1875 19.6875z"/>
    <path fill="#FFEABA" d="M125.507812 135.234375C125.507812 134.765625 125.15625 134.414062 124.6875 134.414062L110.039062 134.414062C109.570312 134.414062 109.21875 134.765625 109.21875 135.234375 109.21875 135.703125 109.570312 136.054688 110.039062 136.054688L124.570313 136.054688C125.15625 136.054687 125.507812 135.703125 125.507812 135.234375zM134.0625 134.414062L129.375 134.414062C128.90625 134.414062 128.554688 134.765625 128.554688 135.234375 128.554688 135.703125 128.90625 136.054688 129.375 136.054688L134.0625 136.054688C134.53125 136.054688 134.882812 135.703125 134.882812 135.234375 135 134.765625 134.53125 134.414062 134.0625 134.414062zM134.0625 139.335938L123.867188 139.335938C123.398438 139.335938 123.046875 139.6875 123.046875 140.15625 123.046875 140.625 123.398438 140.976562 123.867188 140.976562L134.0625 140.976562C134.53125 140.976562 134.882812 140.625 134.882812 140.15625 135 139.804688 134.53125 139.335938 134.0625 139.335938zM119.648438 139.335938L116.367188 139.335938C115.898438 139.335938 115.546875 139.6875 115.546875 140.15625 115.546875 140.625 115.898438 140.976562 116.367188 140.976562L119.648438 140.976562C120.117188 140.976562 120.46875 140.625 120.46875 140.15625 120.46875 139.804688 120.117188 139.335938 119.648438 139.335938z"/>
    <path fill="#5B46CD" d="M149.296875,87.7734375 C149.0625,87.421875 148.476562,87.3046875 148.125,87.5390625 C142.382812,91.40625 136.640625,95.625 131.132812,99.84375 C130.078125,100.664062 128.90625,101.015625 127.851562,100.898438 C127.382812,100.78125 126.679688,100.546875 126.210937,99.9609375 L106.757812,71.6015625 C106.289062,70.8984375 106.289062,70.1953125 106.40625,69.7265625 C106.640625,68.671875 107.460937,67.6171875 108.515625,67.03125 C112.617187,64.5703125 116.71875,61.875 120.703125,59.296875 C121.054687,59.0625 121.171875,58.4765625 120.9375,58.125 C120.703125,57.7734375 120.117187,57.65625 119.765625,57.890625 C115.78125,60.46875 111.679687,63.1640625 107.578125,65.625 C106.171875,66.4453125 105.117187,67.734375 104.765625,69.140625 L69.0234375,69.140625 L66.328125,69.140625 L45.234375,69.140625 C44.8828125,67.734375 43.828125,66.4453125 42.421875,65.625 C38.3203125,63.1640625 34.21875,60.5859375 30.234375,57.890625 C29.8828125,57.65625 29.296875,57.7734375 29.0625,58.125 C28.828125,58.4765625 28.9453125,59.0625 29.296875,59.296875 C33.28125,61.9921875 37.3828125,64.5703125 41.484375,67.03125 C42.5390625,67.734375 43.359375,68.671875 43.59375,69.7265625 C43.59375,69.84375 43.59375,69.84375 43.59375,69.9609375 C43.59375,70.078125 43.59375,70.3125 43.7109375,70.4296875 C43.7109375,70.78125 43.59375,71.25 43.359375,71.6015625 L23.90625,99.9609375 C23.4375,100.664062 22.734375,100.898438 22.265625,100.898438 C21.2109375,101.015625 19.921875,100.664062 18.984375,99.84375 C13.359375,95.5078125 7.6171875,91.40625 1.9921875,87.5390625 C1.640625,87.3046875 1.0546875,87.421875 0.8203125,87.7734375 C0.5859375,88.125 0.703125,88.7109375 1.0546875,88.9453125 C6.6796875,92.8125 12.421875,96.9140625 17.9296875,101.25 C19.1015625,102.1875 20.5078125,102.65625 21.796875,102.65625 C22.03125,102.65625 22.265625,102.65625 22.6171875,102.539063 C23.7890625,102.304688 24.7265625,101.71875 25.3125,100.898438 L27.3046875,98.0859375 C28.4765625,99.0234375 30.9375,101.132812 31.9921875,103.359375 C32.34375,103.945312 32.4609375,104.414062 32.6953125,104.882812 C32.8125,105.234375 32.9296875,105.46875 33.1640625,105.820312 C32.6953125,106.171875 32.2265625,106.640625 31.7578125,107.109375 L30.3515625,109.101562 C28.59375,111.5625 29.0625,114.960938 31.5234375,116.835937 L33.75,118.476562 C34.6875,119.179687 35.859375,119.53125 37.03125,119.53125 C37.265625,119.53125 37.6171875,119.53125 37.8515625,119.414062 C38.0859375,119.414062 38.3203125,119.296875 38.5546875,119.179688 C38.3203125,121.171875 39.0234375,123.28125 40.78125,124.570312 L42.7734375,126.09375 L42.7734375,126.09375 C43.7109375,126.796875 44.8828125,127.148438 46.171875,127.148438 C46.40625,127.148438 46.7578125,127.148438 46.9921875,127.03125 C47.4609375,126.914063 47.8125,126.796875 48.28125,126.679688 C48.28125,127.148438 48.28125,127.5 48.28125,127.96875 C48.515625,129.492188 49.3359375,130.78125 50.5078125,131.71875 L52.5,133.242188 L52.5,133.242188 C53.4375,133.945312 54.609375,134.296875 55.8984375,134.296875 C56.1328125,134.296875 56.484375,134.296875 56.71875,134.179688 C57.3046875,134.0625 57.7734375,133.945312 58.2421875,133.710938 C58.2421875,135.351562 58.9453125,136.875 60.234375,137.929688 L61.9921875,139.21875 C62.8125,139.921875 63.8671875,140.15625 64.921875,140.15625 C65.15625,140.15625 65.390625,140.15625 65.625,140.15625 C66.9140625,139.921875 68.0859375,139.21875 68.90625,138.164062 L69.9609375,136.757812 C70.078125,136.875 70.078125,137.109375 70.3125,137.226562 C71.6015625,138.046875 73.0078125,138.515625 74.4140625,138.515625 C76.7578125,138.515625 78.984375,137.460938 80.390625,135.351562 C81.6796875,133.476562 81.9140625,131.25 81.328125,129.257812 L84.9609375,131.835938 C86.1328125,132.65625 87.5390625,133.125 89.0625,133.125 C89.53125,133.125 90,133.125 90.3515625,133.007812 C92.2265625,132.65625 93.8671875,131.601562 94.921875,129.960938 C95.9765625,128.320312 96.4453125,126.445312 96.09375,124.570312 C96.09375,124.335938 95.9765625,124.21875 95.9765625,123.984375 L98.0859375,125.390625 C99.2578125,126.210938 100.664062,126.679688 102.1875,126.679688 C102.65625,126.679688 103.125,126.679688 103.476562,126.5625 C105.351562,126.210938 106.992187,125.15625 108.046875,123.515625 C109.101562,121.875 109.570312,120 109.21875,118.125 C109.21875,117.890625 109.101562,117.773438 109.101562,117.539063 L111.796875,119.296875 C112.96875,120.117188 114.375,120.585938 115.898437,120.585938 C116.367188,120.585938 116.835938,120.585938 117.1875,120.46875 C119.0625,120.117188 120.703125,119.0625 121.757812,117.421875 C122.8125,115.78125 123.28125,113.90625 122.929688,112.03125 C122.578125,110.15625 121.523438,108.515625 119.882812,107.460938 L94.21875,90.234375 C93.984375,90.1171875 93.75,90.1171875 93.515625,90.1171875 L89.0625,90.1171875 C79.6875,90.1171875 78.515625,82.5 78.3984375,82.1484375 C78.3984375,81.6796875 77.9296875,81.4453125 77.578125,81.4453125 L62.578125,81.4453125 C62.109375,81.4453125 61.7578125,81.796875 61.7578125,82.1484375 C60.9375,86.6015625 59.4140625,89.6484375 56.953125,91.171875 C55.078125,92.34375 53.203125,92.2265625 52.265625,92.109375 L52.265625,78.75 L66.5625,70.78125 L69.0234375,70.78125 L104.648437,70.78125 C104.765625,71.3671875 104.882812,72.0703125 105.234375,72.5390625 L124.6875,100.898438 C125.273438,101.835938 126.328125,102.421875 127.382812,102.539063 C127.617188,102.539063 127.851562,102.65625 128.203125,102.65625 C129.492188,102.65625 130.898438,102.1875 132.070312,101.25 C137.578125,97.03125 143.320312,92.8125 148.945312,88.9453125 C149.414062,88.7109375 149.53125,88.125 149.296875,87.7734375 Z M37.5,117.773438 C36.5625,117.890625 35.5078125,117.65625 34.6875,117.070313 L34.6875,117.070313 L32.4609375,115.429688 C30.8203125,114.140625 30.46875,111.796875 31.640625,110.15625 L33.046875,108.164062 C33.3984375,107.695312 33.984375,107.226562 34.453125,106.992188 C34.453125,106.992188 34.453125,106.992188 34.5703125,106.992188 C34.5703125,106.992188 34.5703125,106.992188 34.5703125,106.992188 C34.8046875,106.875 35.15625,106.757812 35.5078125,106.757812 C35.7421875,106.757812 35.859375,106.757812 36.09375,106.757812 C36.9140625,106.757812 37.6171875,106.992188 38.3203125,107.460938 L40.546875,109.101562 C41.3671875,109.6875 41.8359375,110.625 42.0703125,111.5625 C42.1875,112.265625 42.0703125,112.96875 41.8359375,113.554688 L39.4921875,116.71875 C39.4921875,116.71875 39.4921875,116.835938 39.375,116.835938 C38.90625,117.304688 38.203125,117.65625 37.5,117.773438 Z M46.640625,125.390625 C45.5859375,125.507812 44.53125,125.273438 43.7109375,124.6875 L43.7109375,124.6875 L41.71875,123.164062 C40.078125,121.992188 39.7265625,119.648438 40.78125,117.890625 C41.015625,117.65625 41.25,117.421875 41.3671875,117.1875 L42.7734375,115.195312 C43.0078125,114.84375 43.2421875,114.609375 43.359375,114.257812 L45,112.03125 C45.8203125,110.976562 46.9921875,110.390625 48.1640625,110.390625 C48.984375,110.390625 49.8046875,110.625 50.5078125,111.210938 L52.5,112.734375 C54.2578125,114.023437 54.609375,116.484375 53.3203125,118.242188 L49.21875,123.867188 C48.6328125,124.6875 47.6953125,125.273438 46.640625,125.390625 Z M56.3671875,132.65625 C55.3125,132.773437 54.2578125,132.539062 53.4375,131.953125 L53.4375,131.953125 L51.4453125,130.429688 C50.625,129.84375 50.0390625,128.90625 49.921875,127.851562 C49.8046875,126.796875 50.0390625,125.742188 50.625,124.921875 L57.1875,116.132812 C57.7734375,115.3125 58.7109375,114.726562 59.765625,114.609375 C60,114.609375 60.1171875,114.609375 60.3515625,114.609375 C61.171875,114.609375 61.9921875,114.84375 62.6953125,115.429688 L64.6875,116.953125 C66.4453125,118.242188 66.796875,120.703125 65.5078125,122.460938 L58.9453125,131.25 C58.2421875,131.953125 57.421875,132.421875 56.3671875,132.65625 Z M67.6171875,137.226562 C67.1484375,137.929688 66.328125,138.398438 65.390625,138.515625 C64.5703125,138.632812 63.6328125,138.398438 62.9296875,137.929688 L62.9296875,137.929688 L61.171875,136.640625 C59.6484375,135.585938 59.4140625,133.476562 60.46875,131.953125 L62.4609375,129.257812 C62.9296875,128.554688 63.75,128.085938 64.6875,127.96875 C64.8046875,127.96875 65.0390625,127.96875 65.15625,127.96875 C65.859375,127.96875 66.5625,128.203125 67.1484375,128.671875 L68.90625,129.960938 C70.4296875,131.015625 70.6640625,133.125 69.609375,134.648438 L67.6171875,137.226562 Z M50.9765625,77.578125 C50.7421875,77.6953125 50.5078125,78.046875 50.5078125,78.28125 L50.5078125,92.6953125 C50.5078125,93.046875 50.7421875,93.3984375 51.09375,93.515625 C51.2109375,93.515625 52.03125,93.8671875 53.3203125,93.8671875 C54.4921875,93.8671875 56.1328125,93.6328125 57.7734375,92.6953125 C60.46875,91.0546875 62.34375,87.890625 63.28125,83.203125 L76.7578125,83.203125 C77.34375,85.4296875 79.8046875,91.875 88.9453125,91.875 L93.515625,91.875 C93.515625,91.875 93.515625,91.875 93.515625,91.875 L118.828125,109.21875 C120,110.039062 120.820313,111.328125 121.054688,112.734375 C121.289063,114.140625 121.054688,115.664062 120.234375,116.835938 C119.414062,118.007812 118.125,118.828125 116.71875,119.0625 C115.3125,119.296875 113.789063,119.0625 112.617188,118.242188 L106.171875,113.90625 C106.171875,113.90625 106.171875,113.90625 106.171875,113.90625 L88.0078125,101.367188 C87.65625,101.132812 87.0703125,101.25 86.8359375,101.601562 C86.6015625,101.953125 86.71875,102.539062 87.0703125,102.773438 L105.234375,115.195312 C106.40625,116.015625 107.226562,117.304688 107.460938,118.710938 C107.695313,120.117188 107.460938,121.640625 106.640625,122.8125 C104.882812,125.273438 101.484375,125.976562 99.0234375,124.21875 L80.859375,111.796875 C80.5078125,111.5625 80.0390625,111.679688 79.6875,111.914062 C79.5703125,112.03125 79.453125,112.03125 79.453125,112.148438 C79.21875,112.5 79.3359375,113.085938 79.6875,113.320312 L92.109375,121.523438 C93.28125,122.34375 94.1015625,123.632812 94.3359375,125.039062 C94.5703125,126.445312 94.3359375,127.96875 93.515625,129.140625 C92.6953125,130.3125 91.40625,131.132812 90,131.367188 C88.59375,131.601562 87.0703125,131.367188 85.8984375,130.546875 L74.1796875,122.226563 C73.828125,121.992188 73.2421875,121.992188 73.0078125,122.460938 C72.7734375,122.8125 72.7734375,123.398438 73.2421875,123.632813 L77.109375,126.445313 C77.2265625,126.5625 77.2265625,126.796875 77.4609375,126.796875 C79.921875,128.554688 80.625,131.953125 78.8671875,134.414063 C77.109375,136.875 73.7109375,137.578125 71.25,135.820313 C71.1328125,135.703125 71.015625,135.703125 70.78125,135.703125 L70.8984375,135.46875 C72.5390625,133.242188 72.0703125,130.078125 69.84375,128.4375 L68.0859375,127.148438 C67.03125,126.328125 65.7421875,126.09375 64.5703125,126.210938 L66.796875,123.28125 C68.671875,120.820313 68.0859375,117.1875 65.625,115.429688 L63.6328125,113.90625 C61.171875,112.03125 57.65625,112.617188 55.78125,115.078125 C55.546875,113.671875 54.84375,112.382813 53.5546875,111.445313 L51.5625,109.921875 C49.1015625,108.164062 45.703125,108.632812 43.828125,110.976562 C43.59375,109.6875 42.890625,108.515625 41.71875,107.695312 L39.4921875,106.054688 C38.3203125,105.234375 36.9140625,104.765625 35.390625,105 C35.15625,105 34.921875,105.117187 34.6875,105.117187 C34.5703125,104.765625 34.3359375,104.414062 34.21875,104.179688 C33.984375,103.710937 33.75,103.242188 33.515625,102.539062 C32.2265625,99.9609375 29.4140625,97.6171875 28.2421875,96.5625 L44.765625,72.5390625 C45.1171875,71.953125 45.3515625,71.3671875 45.3515625,70.78125 L63.046875,70.78125 L50.9765625,77.578125 Z"/>
    <path fill="#CAC0FF" d="M129.84375 91.5234375C131.835938 91.5234375 133.59375 89.8828125 133.59375 87.7734375 133.59375 85.78125 131.953125 84.0234375 129.84375 84.0234375 127.851562 84.0234375 126.09375 85.6640625 126.09375 87.7734375 126.09375 89.8828125 127.851562 91.5234375 129.84375 91.5234375zM129.84375 85.78125C130.898438 85.78125 131.835938 86.71875 131.835938 87.7734375 131.835938 88.828125 130.898438 89.765625 129.84375 89.765625 128.789062 89.765625 127.851562 88.828125 127.851562 87.7734375 127.851562 86.71875 128.789062 85.78125 129.84375 85.78125zM16.40625 87.7734375C16.40625 89.765625 18.046875 91.5234375 20.15625 91.5234375 22.1484375 91.5234375 23.90625 89.8828125 23.90625 87.7734375 23.90625 85.78125 22.265625 84.0234375 20.15625 84.0234375 18.046875 84.140625 16.40625 85.78125 16.40625 87.7734375zM22.1484375 87.7734375C22.1484375 88.828125 21.2109375 89.765625 20.15625 89.765625 19.1015625 89.765625 18.1640625 88.828125 18.1640625 87.7734375 18.1640625 86.71875 19.1015625 85.78125 20.15625 85.78125 21.2109375 85.78125 22.1484375 86.71875 22.1484375 87.7734375zM113.320312 69.2578125C112.96875 69.4921875 112.851562 70.078125 113.085938 70.4296875L117.65625 77.2265625C117.773438 77.4609375 118.125 77.578125 118.359375 77.578125 118.476562 77.578125 118.710937 77.578125 118.828125 77.4609375 119.179688 77.2265625 119.296875 76.640625 119.0625 76.2890625L114.492188 69.4921875C114.257812 69.0234375 113.671875 68.90625 113.320312 69.2578125zM32.8125 77.2265625L37.3828125 70.4296875C37.6171875 70.078125 37.5 69.4921875 37.1484375 69.2578125 36.796875 69.0234375 36.2109375 69.140625 35.9765625 69.4921875L31.40625 76.2890625C31.171875 76.640625 31.2890625 77.2265625 31.640625 77.4609375 31.7578125 77.578125 31.9921875 77.578125 32.109375 77.578125 32.34375 77.578125 32.6953125 77.4609375 32.8125 77.2265625z"/>
    <path fill="#FFCE5F" d="M53.0859375,56.71875 L96.796875,56.71875 C98.3203125,56.71875 99.609375,55.4296875 99.609375,53.90625 L99.609375,52.8515625 C99.609375,51.328125 98.3203125,50.0390625 96.796875,50.0390625 L94.921875,50.0390625 L93.515625,41.015625 C93.3984375,40.546875 93.046875,40.3125 92.6953125,40.3125 L85.4296875,40.3125 C83.90625,39.7265625 82.6171875,38.4375 81.796875,36.5625 C79.8046875,31.9921875 80.625,24.7265625 83.90625,16.7578125 C83.90625,16.640625 84.0234375,16.640625 84.0234375,16.40625 C84.2578125,15.703125 84.609375,15.1171875 84.9609375,14.53125 C84.9609375,14.53125 84.9609375,14.53125 84.9609375,14.53125 C84.9609375,14.53125 84.9609375,14.4140625 85.078125,14.4140625 C85.4296875,13.4765625 85.546875,12.421875 85.546875,11.25 C85.546875,5.390625 80.859375,0.703125 75,0.703125 C69.140625,0.703125 64.453125,5.390625 64.453125,11.25 C64.453125,12.3046875 64.5703125,13.359375 64.921875,14.4140625 L64.921875,14.4140625 C64.921875,14.53125 64.921875,14.53125 65.0390625,14.6484375 C65.390625,15.234375 65.625,15.8203125 65.859375,16.40625 C65.859375,16.40625 65.859375,16.5234375 65.859375,16.5234375 C65.859375,16.5234375 65.859375,16.5234375 65.859375,16.640625 C69.2578125,24.7265625 70.078125,31.9921875 68.0859375,36.5625 C67.265625,38.4375 65.9765625,39.7265625 64.453125,40.4296875 L57.1875,40.4296875 C56.71875,40.4296875 56.3671875,40.78125 56.3671875,41.1328125 L55.078125,50.0390625 L53.0859375,50.0390625 C51.5625,50.0390625 50.2734375,51.328125 50.2734375,52.8515625 L50.2734375,53.90625 C50.2734375,55.4296875 51.5625,56.71875 53.0859375,56.71875 Z M69.7265625,37.1484375 C71.953125,31.9921875 71.1328125,24.4921875 67.5,15.8203125 L66.6796875,16.171875 L67.3828125,15.703125 C67.1484375,15.1171875 66.796875,14.4140625 66.4453125,13.828125 C66.2109375,13.0078125 66.09375,12.0703125 66.09375,11.25 C66.2109375,6.328125 70.078125,2.34375 75,2.34375 C79.921875,2.34375 83.7890625,6.328125 83.7890625,11.1328125 C83.7890625,11.953125 83.671875,12.890625 83.4375,13.7109375 C83.0859375,14.296875 82.8515625,15 82.5,15.5859375 C82.5,15.703125 82.3828125,15.703125 82.3828125,15.8203125 L83.203125,16.171875 L82.3828125,15.9375 C78.75,24.4921875 78.046875,31.9921875 80.2734375,37.1484375 C80.859375,38.4375 81.5625,39.4921875 82.3828125,40.3125 L67.6171875,40.3125 C68.4375,39.4921875 69.140625,38.4375 69.7265625,37.1484375 Z M58.0078125,42.0703125 L64.6875,42.0703125 L85.1953125,42.0703125 L91.875,42.0703125 L93.046875,50.0390625 L56.71875,50.0390625 L58.0078125,42.0703125 Z M52.03125,52.8515625 C52.03125,52.265625 52.5,51.6796875 53.203125,51.6796875 L55.8984375,51.6796875 L94.21875,51.6796875 L96.9140625,51.6796875 C97.5,51.6796875 98.0859375,52.1484375 98.0859375,52.8515625 L98.0859375,53.90625 C98.0859375,54.4921875 97.6171875,55.078125 96.9140625,55.078125 L53.0859375,55.078125 C52.5,55.078125 51.9140625,54.609375 51.9140625,53.90625 L51.9140625,52.8515625 L52.03125,52.8515625 Z"/>
  </g>
</svg>
