<svg xmlns="http://www.w3.org/2000/svg" viewBox="0 0 53 39"><defs><style>.a{fill:gray;}</style></defs><title>icons</title><path class="a" d="M40,6.78H33l-.34-2.09a1.67,1.67,0,0,0-1.64-1.37H22a1.6,1.6,0,0,0-1.6,1.37L20.1,6.78H13a1,1,0,0,0,0,1.9h2.06l1.64,24.64a2.59,2.59,0,0,0,2.63,2.36H33.66a2.56,2.56,0,0,0,2.63-2.36L37.92,8.69H40a1,1,0,0,0,0-1.9ZM22.31,5.22h8.53l.27,1.56H22Zm12.07,28a.72.72,0,0,1-.76.57H19.34a.75.75,0,0,1-.76-.57L17,8.72H36Z"/><path class="a" d="M26.58,30.73a.76.76,0,0,0,.76-.76V12.46a.76.76,0,1,0-1.52,0V30A.76.76,0,0,0,26.58,30.73Z"/><path class="a" d="M30.73,30.73h0a.77.77,0,0,0,.8-.72l.76-17.52a.76.76,0,0,0-1.52-.08L30,29.93A.74.74,0,0,0,30.73,30.73Z"/><path class="a" d="M22.39,30.73h0a.77.77,0,0,0,.76-.8l-.76-17.52a.76.76,0,0,0-1.52.08L21.63,30A.73.73,0,0,0,22.39,30.73Z"/></svg>