<svg xmlns="http://www.w3.org/2000/svg" viewBox="0 0 53 39"><defs><style>.a{fill:gray;}</style></defs><title>icons</title><path class="a" d="M26.5,6.81c-10.13,0-19,4.77-24.09,12a1.15,1.15,0,0,0,0,1.27A29.23,29.23,0,0,0,26.5,32.19,29.25,29.25,0,0,0,50.6,20.13a1.19,1.19,0,0,0,0-1.27C45.55,11.58,36.61,6.81,26.5,6.81ZM26.5,9A27.07,27.07,0,0,1,48.27,19.5,27.07,27.07,0,0,1,26.5,30,27,27,0,0,1,4.74,19.5,27,27,0,0,1,26.5,9Zm0,1.64a8.83,8.83,0,1,0,8.82,8.84A8.86,8.86,0,0,0,26.5,10.66Zm0,2.21a6.63,6.63,0,1,1-6.63,6.63A6.61,6.61,0,0,1,26.5,12.87Z"/></svg>